# Exported from Wings 3D 1.5.4
mtllib ./le7_sp.mtl
o small_piston
#31 vertices, 38 faces
v -6.2500000e-3 1.2500000e-2 0.0000000e+0
v -6.2500000e-3 8.8388348e-3 -8.8388348e-3
v -6.2500000e-3 1.1102230e-16 -1.2500000e-2
v -6.2500000e-3 -8.8388348e-3 -8.8388348e-3
v -6.2500000e-3 -1.2500000e-2 0.0000000e+0
v 6.2500000e-3 1.2500000e-2 0.0000000e+0
v 6.2500000e-3 8.8388348e-3 -8.8388348e-3
v 6.2500000e-3 1.1102230e-16 -1.2500000e-2
v 6.2500000e-3 -8.8388348e-3 -8.8388348e-3
v 6.2500000e-3 -1.2500000e-2 0.0000000e+0
v -6.2500000e-3 -1.2500000e-2 1.2500000e-2
v -6.2500000e-3 1.2500000e-2 1.2500000e-2
v 6.2500000e-3 1.2500000e-2 1.2500000e-2
v 6.2500000e-3 -1.2500000e-2 1.2500000e-2
v 1.2500000e-2 1.1102230e-16 3.7500000e-2
v 8.8388348e-3 -8.8388348e-3 3.7500000e-2
v 6.8149851e-18 -1.2500000e-2 3.7500000e-2
v -8.8388348e-3 -8.8388348e-3 3.7500000e-2
v -1.2500000e-2 1.1102230e-16 3.7500000e-2
v -8.8388348e-3 8.8388348e-3 3.7500000e-2
v 6.8149851e-18 1.2500000e-2 3.7500000e-2
v 8.8388348e-3 8.8388348e-3 3.7500000e-2
v 1.2500000e-2 1.1102230e-16 0.15500000
v 8.8388348e-3 -8.8388348e-3 0.15500000
v 6.8149851e-18 -1.2500000e-2 0.15500000
v -8.8388348e-3 -8.8388348e-3 0.15500000
v -1.2500000e-2 1.1102230e-16 0.15500000
v -8.8388348e-3 8.8388348e-3 0.15500000
v 6.8149851e-18 1.2500000e-2 0.15500000
v 8.8388348e-3 8.8388348e-3 0.15500000
v 6.8149851e-18 1.1102230e-16 0.15500000
vt 0.91013734 0.53656424
vt 0.91434755 0.40488155
vt 0.91434755 0.52136563
vt 0.91440318 0.52626558
vt 0.91440318 0.54686290
vt 0.92076917 0.34578045
vt 0.92076917 0.35044073
vt 0.92076917 0.36089640
vt 0.92076917 0.37545005
vt 0.92464622 0.40504624
vt 0.92464622 0.52136563
vt 0.92470184 0.52199973
vt 0.92470184 0.53656424
vt 0.92470184 0.55112875
vt 0.93047884 0.34578045
vt 0.93047884 0.35044073
vt 0.93047884 0.36089640
vt 0.93047884 0.37545005
vt 0.93067842 0.36090282
vt 0.93067842 0.37545155
vt 0.93494427 0.35061532
vt 0.93494427 0.40480234
vt 0.93494427 0.52125833
vt 0.93494488 0.40488155
vt 0.93494488 0.52136563
vt 0.93500050 0.52626558
vt 0.93500050 0.54686290
vt 0.93926635 0.53656424
vt 0.94524293 0.34635410
vt 0.94524293 0.40500086
vt 0.94524293 0.52125833
vt 0.95554159 0.35061532
vt 0.95554159 0.40480234
vt 0.95554159 0.52125833
vt 0.95980743 0.36090282
vt 0.95980743 0.37545155
vn 0.99762945 3.5026220e-15 -6.8814874e-2
vn 2.3667146e-16 -0.99917533 4.0603815e-2
vn -0.99762945 3.5382419e-15 -6.8814874e-2
vn 2.3667146e-16 0.99917533 4.0603815e-2
vn -7.3955710e-31 0.0000000e+0 1.00000000
vn 0.0000000e+0 0.98078528 -0.19509032
vn 0.0000000e+0 0.98078528 -0.19509032
vn -1.00000000 0.0000000e+0 0.0000000e+0
vn -1.00000000 0.0000000e+0 0.0000000e+0
vn 0.0000000e+0 0.70710678 -0.70710678
vn -1.00000000 0.0000000e+0 0.0000000e+0
vn 0.0000000e+0 0.70710678 -0.70710678
vn -1.00000000 0.0000000e+0 0.0000000e+0
vn 0.0000000e+0 4.4462779e-15 -1.00000000
vn 0.0000000e+0 4.4462779e-15 -1.00000000
vn -1.00000000 0.0000000e+0 0.0000000e+0
vn 0.0000000e+0 -0.70710678 -0.70710678
vn 0.0000000e+0 -0.70710678 -0.70710678
vn -1.00000000 0.0000000e+0 0.0000000e+0
vn 0.0000000e+0 -0.98078528 -0.19509032
vn -1.00000000 0.0000000e+0 0.0000000e+0
vn 0.0000000e+0 -0.98078528 -0.19509032
vn 0.0000000e+0 0.98078528 -0.19509032
vn 0.0000000e+0 0.98078528 -0.19509032
vn 1.00000000 0.0000000e+0 0.0000000e+0
vn 1.00000000 0.0000000e+0 0.0000000e+0
vn 0.0000000e+0 0.70710678 -0.70710678
vn 0.0000000e+0 0.70710678 -0.70710678
vn 1.00000000 0.0000000e+0 0.0000000e+0
vn 0.0000000e+0 4.4462779e-15 -1.00000000
vn 0.0000000e+0 4.4462779e-15 -1.00000000
vn 1.00000000 0.0000000e+0 0.0000000e+0
vn 0.0000000e+0 -0.70710678 -0.70710678
vn 0.0000000e+0 -0.70710678 -0.70710678
vn 1.00000000 0.0000000e+0 0.0000000e+0
vn 0.0000000e+0 -0.98078528 -0.19509032
vn 1.00000000 0.0000000e+0 0.0000000e+0
vn 1.00000000 0.0000000e+0 0.0000000e+0
vn 0.0000000e+0 -0.98078528 -0.19509032
vn -0.98677917 -0.13041448 -9.6223320e-2
vn -0.12931035 -0.99107707 3.2327589e-2
vn -0.98677917 -0.13041448 -9.6223320e-2
vn -0.12931035 -0.99107707 3.2327589e-2
vn -0.12931035 -0.99107707 3.2327589e-2
vn -0.98677917 -0.13041448 -9.6223320e-2
vn -0.12931035 0.99107707 3.2327589e-2
vn -0.98677917 0.13041448 -9.6223320e-2
vn -0.98677917 0.13041448 -9.6223320e-2
vn -0.12931035 0.99107707 3.2327589e-2
vn -0.98677917 0.13041448 -9.6223320e-2
vn -0.12931035 0.99107707 3.2327589e-2
vn 0.12931035 0.99107707 3.2327589e-2
vn 0.98677917 0.13041448 -9.6223320e-2
vn 0.12931035 0.99107707 3.2327589e-2
vn 0.98677917 0.13041448 -9.6223320e-2
vn 0.98677917 0.13041448 -9.6223320e-2
vn 0.12931035 0.99107707 3.2327589e-2
vn 0.98677917 -0.13041448 -9.6223320e-2
vn 0.12931035 -0.99107707 3.2327589e-2
vn 0.98677917 -0.13041448 -9.6223320e-2
vn 0.12931035 -0.99107707 3.2327589e-2
vn 0.98677917 -0.13041448 -9.6223320e-2
vn 0.12931035 -0.99107707 3.2327589e-2
vn 0.70730211 -0.70675066 1.5074155e-2
vn 0.70730211 -0.70675066 1.5074155e-2
vn 0.70730211 -0.70675066 1.5074155e-2
vn 0.70730211 -0.70675066 1.5074155e-2
vn -0.70730211 -0.70675066 1.5074155e-2
vn -0.70730211 -0.70675066 1.5074155e-2
vn -0.70730211 -0.70675066 1.5074155e-2
vn -0.70730211 -0.70675066 1.5074155e-2
vn -0.70730211 0.70675066 1.5074155e-2
vn -0.70730211 0.70675066 1.5074155e-2
vn -0.70730211 0.70675066 1.5074155e-2
vn -0.70730211 0.70675066 1.5074155e-2
vn 0.70730211 0.70675066 1.5074155e-2
vn 0.70730211 0.70675066 1.5074155e-2
vn 0.70730211 0.70675066 1.5074155e-2
vn 0.70730211 0.70675066 1.5074155e-2
vn 0.0000000e+0 0.0000000e+0 1.00000000
vn 0.0000000e+0 0.0000000e+0 1.00000000
vn 1.00000000 4.4462779e-15 0.0000000e+0
vn 1.00000000 4.4462779e-15 0.0000000e+0
vn -9.8130778e-16 0.0000000e+0 1.00000000
vn -9.8130778e-16 0.0000000e+0 1.00000000
vn 0.70710678 -0.70710678 0.0000000e+0
vn 0.70710678 -0.70710678 0.0000000e+0
vn -1.5777218e-30 0.0000000e+0 1.00000000
vn -1.5777218e-30 0.0000000e+0 1.00000000
vn 3.3046660e-16 -1.00000000 0.0000000e+0
vn 3.3046660e-16 -1.00000000 0.0000000e+0
vn 9.8130778e-16 0.0000000e+0 1.00000000
vn 9.8130778e-16 0.0000000e+0 1.00000000
vn -0.70710678 -0.70710678 0.0000000e+0
vn -0.70710678 -0.70710678 0.0000000e+0
vn 0.0000000e+0 0.0000000e+0 1.00000000
vn 0.0000000e+0 0.0000000e+0 1.00000000
vn -1.00000000 4.4462779e-15 0.0000000e+0
vn -1.00000000 4.4462779e-15 0.0000000e+0
vn 9.8130778e-16 0.0000000e+0 1.00000000
vn 9.8130778e-16 0.0000000e+0 1.00000000
vn -0.70710678 0.70710678 0.0000000e+0
vn -0.70710678 0.70710678 0.0000000e+0
vn -1.3805066e-30 0.0000000e+0 1.00000000
vn -1.3805066e-30 0.0000000e+0 1.00000000
vn 3.3046660e-16 1.00000000 0.0000000e+0
vn 3.3046660e-16 1.00000000 0.0000000e+0
vn -9.8130778e-16 0.0000000e+0 1.00000000
vn -9.8130778e-16 0.0000000e+0 1.00000000
vn 0.70710678 0.70710678 0.0000000e+0
vn 0.70710678 0.70710678 0.0000000e+0
g small_piston_base_auv
usemtl base_auv
s 1
f 23/28/80 31/13/5 24/27/84
f 24/27/85 31/13/5 25/14/88
f 25/14/89 31/13/5 26/5/92
f 26/5/93 31/13/5 27/1/96
f 27/1/97 31/13/5 28/4/100
f 28/4/101 31/13/5 29/12/104
f 29/12/105 31/13/5 30/26/108
f 30/26/109 31/13/5 23/28/81
s 2
f 1/8/6 6/17/23 7/16/27 2/7/10
f 1/8/7 12/9/46 13/18/52 6/17/24
f 2/32/11 3/29/13 4/21/16 5/19/19 1/35/8
f 2/7/12 7/16/28 8/15/30 3/6/14
f 3/15/15 8/6/31 9/7/33 4/16/17
f 4/16/18 9/7/34 10/8/36 5/17/20
f 5/19/21 11/20/40 12/36/47 1/35/9
f 6/19/25 10/35/37 9/32/35 8/29/32 7/21/29
f 6/19/26 13/20/53 14/36/58 10/35/38
f 10/8/39 14/9/59 11/18/41 5/17/22
f 11/20/42 19/30/3 12/36/48
f 12/9/49 21/10/4 13/18/54
f 13/20/55 15/30/1 14/36/60
f 13/20/56 22/22/76 15/30/1
f 14/9/61 17/10/2 11/18/43
f 15/30/1 16/33/65 14/36/62
f 15/30/1 23/31/82 24/34/86 16/33/64
f 16/2/67 17/10/2 14/9/63
f 16/2/66 24/3/87 25/11/90 17/10/2
f 17/10/2 18/24/69 11/18/44
f 17/10/2 25/11/91 26/25/94 18/24/68
f 18/22/71 19/30/3 11/20/45
f 18/22/70 26/23/95 27/31/98 19/30/3
f 19/30/3 20/33/73 12/36/50
f 19/30/3 27/31/99 28/34/102 20/33/72
f 20/2/75 21/10/4 12/9/51
f 20/2/74 28/3/103 29/11/106 21/10/4
f 21/10/4 22/24/78 13/18/57
f 21/10/4 29/11/107 30/25/110 22/24/77
f 22/22/79 30/23/111 23/31/83 15/30/1
