# Exported from Wings 3D 1.5.4
mtllib ./le7_bp.mtl
o big_piston
#31 vertices, 38 faces
v -6.2500000e-3 1.8750000e-2 0.0000000e+0
v -6.2500000e-3 1.3258252e-2 -1.3258252e-2
v -6.2500000e-3 1.1102230e-16 -1.8750000e-2
v -6.2500000e-3 -1.3258252e-2 -1.3258252e-2
v -6.2500000e-3 -1.8750000e-2 0.0000000e+0
v 6.2500000e-3 1.8750000e-2 0.0000000e+0
v 6.2500000e-3 1.3258252e-2 -1.3258252e-2
v 6.2500000e-3 1.1102230e-16 -1.8750000e-2
v 6.2500000e-3 -1.3258252e-2 -1.3258252e-2
v 6.2500000e-3 -1.8750000e-2 0.0000000e+0
v -6.2500000e-3 -1.8750000e-2 1.8750000e-2
v -6.2500000e-3 1.8750000e-2 1.8750000e-2
v 6.2500000e-3 1.8750000e-2 1.8750000e-2
v 6.2500000e-3 -1.8750000e-2 1.8750000e-2
v 1.8750000e-2 1.1102230e-16 5.6250000e-2
v 1.3258252e-2 -1.3258252e-2 5.6250000e-2
v 1.0408341e-17 -1.8750000e-2 5.6250000e-2
v -1.3258252e-2 -1.3258252e-2 5.6250000e-2
v -1.8750000e-2 1.1102230e-16 5.6250000e-2
v -1.3258252e-2 1.3258252e-2 5.6250000e-2
v 1.0408341e-17 1.8750000e-2 5.6250000e-2
v 1.3258252e-2 1.3258252e-2 5.6250000e-2
v 1.8750000e-2 1.1102230e-16 0.15625000
v 1.3258252e-2 -1.3258252e-2 0.15625000
v 1.0408341e-17 -1.8750000e-2 0.15625000
v -1.3258252e-2 -1.3258252e-2 0.15625000
v -1.8750000e-2 1.1102230e-16 0.15625000
v -1.3258252e-2 1.3258252e-2 0.15625000
v 1.0408341e-17 1.8750000e-2 0.15625000
v 1.3258252e-2 1.3258252e-2 0.15625000
v 1.0408341e-17 1.1102230e-16 0.15625000
vt 0.91061840 0.53587633
vt 0.91482862 0.40419364
vt 0.91482862 0.52067772
vt 0.91488425 0.52557767
vt 0.91488425 0.54617499
vt 0.92125024 0.34509254
vt 0.92125024 0.34975282
vt 0.92125024 0.36020849
vt 0.92125024 0.37476214
vt 0.92512728 0.40435833
vt 0.92512728 0.52067772
vt 0.92518291 0.52131182
vt 0.92518291 0.53587633
vt 0.92518291 0.55044084
vt 0.93095991 0.34509254
vt 0.93095991 0.34975282
vt 0.93095991 0.36020849
vt 0.93095991 0.37476214
vt 0.93115949 0.36021491
vt 0.93115949 0.37476364
vt 0.93542533 0.34992741
vt 0.93542533 0.40411443
vt 0.93542533 0.52057042
vt 0.93542594 0.40419364
vt 0.93542594 0.52067772
vt 0.93548157 0.52557767
vt 0.93548157 0.54617499
vt 0.93974742 0.53587633
vt 0.94572399 0.34566619
vt 0.94572399 0.40431295
vt 0.94572399 0.52057042
vt 0.95602266 0.34992741
vt 0.95602266 0.40411443
vt 0.95602266 0.52057042
vt 0.96028850 0.36021491
vt 0.96028850 0.37476364
vn 0.99307625 2.3208713e-15 -0.11747157
vn 2.0106317e-16 -0.99963210 2.7123157e-2
vn -0.99307625 2.3327732e-15 -0.11747157
vn 1.8923592e-16 0.99963210 2.7123157e-2
vn 0.0000000e+0 0.0000000e+0 1.00000000
vn 0.0000000e+0 0.98078528 -0.19509033
vn 0.0000000e+0 0.98078528 -0.19509033
vn -1.00000000 0.0000000e+0 0.0000000e+0
vn -1.00000000 0.0000000e+0 0.0000000e+0
vn 0.0000000e+0 0.70710678 -0.70710678
vn -1.00000000 0.0000000e+0 0.0000000e+0
vn 0.0000000e+0 0.70710678 -0.70710678
vn -1.00000000 0.0000000e+0 0.0000000e+0
vn 0.0000000e+0 2.9741995e-15 -1.00000000
vn 0.0000000e+0 2.9741995e-15 -1.00000000
vn -1.00000000 0.0000000e+0 0.0000000e+0
vn 0.0000000e+0 -0.70710678 -0.70710678
vn 0.0000000e+0 -0.70710678 -0.70710678
vn -1.00000000 0.0000000e+0 0.0000000e+0
vn 0.0000000e+0 -0.98078528 -0.19509033
vn -1.00000000 0.0000000e+0 0.0000000e+0
vn 0.0000000e+0 -0.98078528 -0.19509033
vn 0.0000000e+0 0.98078528 -0.19509033
vn 0.0000000e+0 0.98078528 -0.19509033
vn 1.00000000 0.0000000e+0 0.0000000e+0
vn 1.00000000 0.0000000e+0 0.0000000e+0
vn 0.0000000e+0 0.70710678 -0.70710678
vn 0.0000000e+0 0.70710678 -0.70710678
vn 1.00000000 0.0000000e+0 0.0000000e+0
vn 0.0000000e+0 2.9741995e-15 -1.00000000
vn 0.0000000e+0 2.9741995e-15 -1.00000000
vn 1.00000000 0.0000000e+0 0.0000000e+0
vn 0.0000000e+0 -0.70710678 -0.70710678
vn 0.0000000e+0 -0.70710678 -0.70710678
vn 1.00000000 0.0000000e+0 0.0000000e+0
vn 0.0000000e+0 -0.98078528 -0.19509033
vn 1.00000000 0.0000000e+0 0.0000000e+0
vn 1.00000000 0.0000000e+0 0.0000000e+0
vn 0.0000000e+0 -0.98078528 -0.19509033
vn -0.98043604 -0.13001618 -0.14778690
vn -0.12956796 -0.99133537 2.1594659e-2
vn -0.98043604 -0.13001618 -0.14778690
vn -0.12956796 -0.99133537 2.1594659e-2
vn -0.12956796 -0.99133537 2.1594659e-2
vn -0.98043604 -0.13001618 -0.14778690
vn -0.12956796 0.99133537 2.1594659e-2
vn -0.98043604 0.13001618 -0.14778690
vn -0.98043604 0.13001618 -0.14778690
vn -0.12956796 0.99133537 2.1594659e-2
vn -0.98043604 0.13001618 -0.14778690
vn -0.12956796 0.99133537 2.1594659e-2
vn 0.12956796 0.99133537 2.1594659e-2
vn 0.98043604 0.13001618 -0.14778690
vn 0.12956796 0.99133537 2.1594659e-2
vn 0.98043604 0.13001618 -0.14778690
vn 0.98043604 0.13001618 -0.14778690
vn 0.12956796 0.99133537 2.1594659e-2
vn 0.98043604 -0.13001618 -0.14778690
vn 0.12956796 -0.99133537 2.1594659e-2
vn 0.98043604 -0.13001618 -0.14778690
vn 0.12956796 -0.99133537 2.1594659e-2
vn 0.98043604 -0.13001618 -0.14778690
vn 0.12956796 -0.99133537 2.1594659e-2
vn 0.70669078 -0.70738103 -1.4149887e-2
vn 0.70669078 -0.70738103 -1.4149887e-2
vn 0.70669078 -0.70738103 -1.4149887e-2
vn 0.70669078 -0.70738103 -1.4149887e-2
vn -0.70669078 -0.70738103 -1.4149887e-2
vn -0.70669078 -0.70738103 -1.4149887e-2
vn -0.70669078 -0.70738103 -1.4149887e-2
vn -0.70669078 -0.70738103 -1.4149887e-2
vn -0.70669078 0.70738103 -1.4149887e-2
vn -0.70669078 0.70738103 -1.4149887e-2
vn -0.70669078 0.70738103 -1.4149887e-2
vn -0.70669078 0.70738103 -1.4149887e-2
vn 0.70669078 0.70738103 -1.4149887e-2
vn 0.70669078 0.70738103 -1.4149887e-2
vn 0.70669078 0.70738103 -1.4149887e-2
vn 0.70669078 0.70738103 -1.4149887e-2
vn 0.0000000e+0 0.0000000e+0 1.00000000
vn 0.0000000e+0 0.0000000e+0 1.00000000
vn 1.00000000 2.9741995e-15 0.0000000e+0
vn 1.00000000 2.9741995e-15 0.0000000e+0
vn 0.0000000e+0 0.0000000e+0 1.00000000
vn 0.0000000e+0 0.0000000e+0 1.00000000
vn 0.70710678 -0.70710678 0.0000000e+0
vn 0.70710678 -0.70710678 0.0000000e+0
vn 0.0000000e+0 0.0000000e+0 1.00000000
vn 0.0000000e+0 0.0000000e+0 1.00000000
vn 2.7038177e-16 -1.00000000 0.0000000e+0
vn 2.7038177e-16 -1.00000000 0.0000000e+0
vn 0.0000000e+0 0.0000000e+0 1.00000000
vn 0.0000000e+0 0.0000000e+0 1.00000000
vn -0.70710678 -0.70710678 0.0000000e+0
vn -0.70710678 -0.70710678 0.0000000e+0
vn 0.0000000e+0 0.0000000e+0 1.00000000
vn 0.0000000e+0 0.0000000e+0 1.00000000
vn -1.00000000 2.9741995e-15 0.0000000e+0
vn -1.00000000 2.9741995e-15 0.0000000e+0
vn 0.0000000e+0 0.0000000e+0 1.00000000
vn 0.0000000e+0 0.0000000e+0 1.00000000
vn -0.70710678 0.70710678 0.0000000e+0
vn -0.70710678 0.70710678 0.0000000e+0
vn 0.0000000e+0 0.0000000e+0 1.00000000
vn 0.0000000e+0 0.0000000e+0 1.00000000
vn 2.7038177e-16 1.00000000 0.0000000e+0
vn 2.7038177e-16 1.00000000 0.0000000e+0
vn 0.0000000e+0 0.0000000e+0 1.00000000
vn 0.0000000e+0 0.0000000e+0 1.00000000
vn 0.70710678 0.70710678 0.0000000e+0
vn 0.70710678 0.70710678 0.0000000e+0
g big_piston_base_auv
usemtl base_auv
s 1
f 23/28/80 31/13/5 24/27/84
f 24/27/85 31/13/5 25/14/88
f 25/14/89 31/13/5 26/5/92
f 26/5/93 31/13/5 27/1/96
f 27/1/97 31/13/5 28/4/100
f 28/4/101 31/13/5 29/12/104
f 29/12/105 31/13/5 30/26/108
f 30/26/109 31/13/5 23/28/81
s 2
f 1/8/6 6/17/23 7/16/27 2/7/10
f 1/8/7 12/9/46 13/18/52 6/17/24
f 2/32/11 3/29/13 4/21/16 5/19/19 1/35/8
f 2/7/12 7/16/28 8/15/30 3/6/14
f 3/15/15 8/6/31 9/7/33 4/16/17
f 4/16/18 9/7/34 10/8/36 5/17/20
f 5/19/21 11/20/40 12/36/47 1/35/9
f 6/19/25 10/35/37 9/32/35 8/29/32 7/21/29
f 6/19/26 13/20/53 14/36/58 10/35/38
f 10/8/39 14/9/59 11/18/41 5/17/22
f 11/20/42 19/30/3 12/36/48
f 12/9/49 21/10/4 13/18/54
f 13/20/55 15/30/1 14/36/60
f 13/20/56 22/22/76 15/30/1
f 14/9/61 17/10/2 11/18/43
f 15/30/1 16/33/65 14/36/62
f 15/30/1 23/31/82 24/34/86 16/33/64
f 16/2/67 17/10/2 14/9/63
f 16/2/66 24/3/87 25/11/90 17/10/2
f 17/10/2 18/24/69 11/18/44
f 17/10/2 25/11/91 26/25/94 18/24/68
f 18/22/71 19/30/3 11/20/45
f 18/22/70 26/23/95 27/31/98 19/30/3
f 19/30/3 20/33/73 12/36/50
f 19/30/3 27/31/99 28/34/102 20/33/72
f 20/2/75 21/10/4 12/9/51
f 20/2/74 28/3/103 29/11/106 21/10/4
f 21/10/4 22/24/78 13/18/57
f 21/10/4 29/11/107 30/25/110 22/24/77
f 22/22/79 30/23/111 23/31/83 15/30/1
