# Exported from Wings 3D 1.5.4
mtllib ./big engine mount collider.mtl
o c
#12 vertices, 8 faces
v -0.25120237 0.81250000 -0.93750000
v 0.25120237 0.81250000 -0.93750000
v -0.25120237 -0.18750000 -0.93750000
v 0.25120237 -0.18750000 -0.93750000
v -0.17751634 -0.81250000 -0.66250000
v 0.17751634 -0.81250000 -0.66250000
v -0.24115427 0.81250000 -0.90000000
v 0.24115427 0.81250000 -0.90000000
v -0.24115427 -0.17961477 -0.90000000
v 0.24115427 -0.17961477 -0.90000000
v -0.16842504 -0.79649931 -0.62857080
v 0.16842504 -0.79649931 -0.62857080
vn -2.2098180e-16 0.0000000e+0 -1.00000000
vn 0.0000000e+0 1.00000000 0.0000000e+0
vn -0.96592583 1.0674088e-16 0.25881905
vn -2.2098180e-16 0.0000000e+0 -1.00000000
vn 0.0000000e+0 1.00000000 0.0000000e+0
vn 0.96592583 -1.0674088e-16 0.25881905
vn -2.2098180e-16 0.0000000e+0 -1.00000000
vn -2.3703277e-16 -0.40273861 -0.91531503
vn -0.96592583 1.0674088e-16 0.25881905
vn -2.2098180e-16 0.0000000e+0 -1.00000000
vn -2.3703277e-16 -0.40273861 -0.91531503
vn 0.96592583 -1.0674088e-16 0.25881905
vn -2.3703277e-16 -0.40273861 -0.91531503
vn 1.3785162e-16 -0.90446912 0.42653911
vn -0.96592583 1.0674088e-16 0.25881905
vn -2.3703277e-16 -0.40273861 -0.91531503
vn 1.3785162e-16 -0.90446912 0.42653911
vn 0.96592583 -1.0674088e-16 0.25881905
vn 2.3018937e-16 0.0000000e+0 1.00000000
vn 0.0000000e+0 1.00000000 0.0000000e+0
vn -0.96592583 1.0674088e-16 0.25881905
vn 2.3018937e-16 0.0000000e+0 1.00000000
vn 0.0000000e+0 1.00000000 0.0000000e+0
vn 0.96592583 -1.0674088e-16 0.25881905
vn 2.3018937e-16 0.0000000e+0 1.00000000
vn 2.5137318e-16 0.40273861 0.91531503
vn -0.96592583 1.0674088e-16 0.25881905
vn 2.3018937e-16 0.0000000e+0 1.00000000
vn 2.5137318e-16 0.40273861 0.91531503
vn 0.96592583 -1.0674088e-16 0.25881905
vn 2.5137318e-16 0.40273861 0.91531503
vn 1.3785162e-16 -0.90446912 0.42653911
vn -0.96592583 1.0674088e-16 0.25881905
vn 2.5137318e-16 0.40273861 0.91531503
vn 1.3785162e-16 -0.90446912 0.42653911
vn 0.96592583 -1.0674088e-16 0.25881905
g c_default
usemtl default
s 1
f 2//4 4//10 3//7 1//1
f 6//17 12//35 11//32 5//14
f 7//19 9//25 10//28 8//22
s 2
f 2//6 8//24 10//30 12//36 6//18 4//12
f 3//9 5//15 11//33 9//27 7//21 1//3
s 3
f 1//2 7//20 8//23 2//5
f 4//11 6//16 5//13 3//8
f 9//26 11//31 12//34 10//29
