# Exported from Wings 3D 1.5.4
mtllib ./booster piston big.mtl
o 1
#17 vertices, 16 faces
v 3.7500000e-2 1.7981839e-17 0.12500000
v 2.6516504e-2 -2.6516504e-2 0.12500000
v -5.1133270e-17 -3.7500000e-2 0.12500000
v -2.6516504e-2 -2.6516504e-2 0.12500000
v -3.7500000e-2 1.3389413e-17 0.12500000
v -2.6516504e-2 2.6516504e-2 0.12500000
v -6.0318121e-17 3.7500000e-2 0.12500000
v 2.6516504e-2 2.6516504e-2 0.12500000
v 3.7500000e-2 1.3389413e-17 0.0000000e+0
v 2.6516504e-2 -2.6516504e-2 0.0000000e+0
v -5.1133270e-17 -3.7500000e-2 1.3877788e-17
v -2.6516504e-2 -2.6516504e-2 0.0000000e+0
v -3.7500000e-2 8.7969878e-18 0.0000000e+0
v -2.6516504e-2 2.6516504e-2 0.0000000e+0
v -6.0318121e-17 3.7500000e-2 0.0000000e+0
v 2.6516504e-2 2.6516504e-2 0.0000000e+0
v -5.3776428e-17 1.9594965e-17 0.12500000
vt 0.78302222 0.29404803
vt 0.78302222 0.38441864
vt 0.80377222 0.29404803
vt 0.80377222 0.38441864
vt 0.82452222 0.29404803
vt 0.82452222 0.38441864
vt 0.83891104 0.33923333
vt 0.84527222 0.29404803
vt 0.84527222 0.38441864
vt 0.84685172 0.32006283
vt 0.84685172 0.35840383
vt 0.86602222 0.29404803
vt 0.86602222 0.31212215
vt 0.86602222 0.33923333
vt 0.86602222 0.36634451
vt 0.86602222 0.38441864
vt 0.88519272 0.32006283
vt 0.88519272 0.35840383
vt 0.88677222 0.29404803
vt 0.88677222 0.38441864
vt 0.89313340 0.33923333
vt 0.90752222 0.29404803
vt 0.90752222 0.38441864
vt 0.92827222 0.29404803
vt 0.92827222 0.38441864
vt 0.94902222 0.29404803
vt 0.94902222 0.38441864
vn 1.00000000 3.0042419e-17 3.3353785e-33
vn 0.70710678 -0.70710678 3.6799042e-17
vn 1.2016967e-16 -1.00000000 6.5420519e-17
vn -0.70710678 -0.70710678 4.9065389e-17
vn -1.00000000 -2.4033935e-16 4.0887824e-18
vn -0.70710678 0.70710678 -3.6799042e-17
vn -1.8025451e-16 1.00000000 -6.1331737e-17
vn 0.70710678 0.70710678 -4.0887824e-17
vn 7.3955710e-32 9.2518585e-17 1.00000000
vn 1.00000000 3.0042419e-17 3.3353785e-33
vn 1.00000000 3.0042419e-17 3.3353785e-33
vn 2.9582284e-31 0.0000000e+0 1.00000000
vn 2.9582284e-31 0.0000000e+0 1.00000000
vn 0.70710678 -0.70710678 3.6799042e-17
vn 0.70710678 -0.70710678 3.6799042e-17
vn 4.3613679e-16 0.0000000e+0 1.00000000
vn 4.3613679e-16 0.0000000e+0 1.00000000
vn 1.2016967e-16 -1.00000000 6.5420519e-17
vn 1.2016967e-16 -1.00000000 6.5420519e-17
vn 0.0000000e+0 0.0000000e+0 1.00000000
vn 0.0000000e+0 0.0000000e+0 1.00000000
vn -0.70710678 -0.70710678 4.9065389e-17
vn -0.70710678 -0.70710678 4.9065389e-17
vn 0.0000000e+0 0.0000000e+0 1.00000000
vn 0.0000000e+0 0.0000000e+0 1.00000000
vn -1.00000000 -2.4033935e-16 4.0887824e-18
vn -1.00000000 -2.4033935e-16 4.0887824e-18
vn 0.0000000e+0 0.0000000e+0 1.00000000
vn 0.0000000e+0 0.0000000e+0 1.00000000
vn -0.70710678 0.70710678 -3.6799042e-17
vn -0.70710678 0.70710678 -3.6799042e-17
vn 0.0000000e+0 1.8503717e-16 1.00000000
vn 0.0000000e+0 1.8503717e-16 1.00000000
vn -1.8025451e-16 1.00000000 -6.1331737e-17
vn -1.8025451e-16 1.00000000 -6.1331737e-17
vn 0.0000000e+0 3.7007434e-16 1.00000000
vn 0.0000000e+0 3.7007434e-16 1.00000000
vn 0.70710678 0.70710678 -4.0887824e-17
vn 0.70710678 0.70710678 -4.0887824e-17
vn -4.3613679e-16 1.8503717e-16 1.00000000
vn -4.3613679e-16 1.8503717e-16 1.00000000
g 1_1_auv
usemtl 1_auv
s 1
f 1/6/10 9/5/1 16/8/8 8/9/38
f 2/4/15 10/3/2 9/5/1 1/6/11
f 3/2/19 11/1/3 10/3/2 2/4/14
f 4/25/23 12/24/4 11/26/3 3/27/18
f 5/23/27 13/22/5 12/24/4 4/25/22
f 6/20/31 14/19/6 13/22/5 5/23/26
f 7/16/35 15/12/7 14/19/6 6/20/30
f 8/9/39 16/8/8 15/12/7 7/16/34
s 2
f 1/21/12 17/14/9 2/17/16
f 2/17/17 17/14/9 3/13/21
f 3/13/20 17/14/9 4/10/25
f 4/10/24 17/14/9 5/7/29
f 5/7/28 17/14/9 6/11/33
f 6/11/32 17/14/9 7/15/37
f 7/15/36 17/14/9 8/18/41
f 8/18/40 17/14/9 1/21/13
