# Exported from Wings 3D 1.5.4
mtllib ./le5a_big_piston.mtl
o big_piston
#31 vertices, 38 faces
v -6.2500000e-3 1.8750000e-2 0.0000000e+0
v -6.2500000e-3 1.3258252e-2 -1.3258252e-2
v -6.2500000e-3 1.1102230e-16 -1.8750000e-2
v -6.2500000e-3 -1.3258252e-2 -1.3258252e-2
v -6.2500000e-3 -1.8750000e-2 0.0000000e+0
v 6.2500000e-3 1.8750000e-2 0.0000000e+0
v 6.2500000e-3 1.3258252e-2 -1.3258252e-2
v 6.2500000e-3 1.1102230e-16 -1.8750000e-2
v 6.2500000e-3 -1.3258252e-2 -1.3258252e-2
v 6.2500000e-3 -1.8750000e-2 0.0000000e+0
v -6.2500000e-3 -1.8750000e-2 1.8750000e-2
v -6.2500000e-3 1.8750000e-2 1.8750000e-2
v 6.2500000e-3 1.8750000e-2 1.8750000e-2
v 6.2500000e-3 -1.8750000e-2 1.8750000e-2
v 1.8750000e-2 1.1102230e-16 5.6250000e-2
v 1.3258252e-2 -1.3258252e-2 5.6250000e-2
v 1.0408341e-17 -1.8750000e-2 5.6250000e-2
v -1.3258252e-2 -1.3258252e-2 5.6250000e-2
v -1.8750000e-2 1.1102230e-16 5.6250000e-2
v -1.3258252e-2 1.3258252e-2 5.6250000e-2
v 1.0408341e-17 1.8750000e-2 5.6250000e-2
v 1.3258252e-2 1.3258252e-2 5.6250000e-2
v 1.8750000e-2 1.1102230e-16 0.15625000
v 1.3258252e-2 -1.3258252e-2 0.15625000
v 1.0408341e-17 -1.8750000e-2 0.15625000
v -1.3258252e-2 -1.3258252e-2 0.15625000
v -1.8750000e-2 1.1102230e-16 0.15625000
v -1.3258252e-2 1.3258252e-2 0.15625000
v 1.0408341e-17 1.8750000e-2 0.15625000
v 1.3258252e-2 1.3258252e-2 0.15625000
v 1.0408341e-17 1.1102230e-16 0.15625000
vt 3.1542449e-2 0.39055938
vt 3.5752667e-2 0.25887669
vt 3.5752667e-2 0.25887669
vt 3.5752667e-2 0.37536077
vt 3.5752667e-2 0.37536077
vt 3.5808294e-2 0.38026072
vt 3.5808294e-2 0.40085804
vt 4.2174283e-2 0.19977559
vt 4.2174283e-2 0.20443587
vt 4.2174283e-2 0.21489154
vt 4.2174283e-2 0.22944519
vt 4.2174283e-2 0.19977559
vt 4.2174283e-2 0.20443587
vt 4.2174283e-2 0.21489154
vt 4.2174283e-2 0.22944519
vt 4.6051328e-2 0.25904138
vt 4.6051328e-2 0.37536077
vt 4.6051328e-2 0.37536077
vt 4.6051328e-2 0.25904138
vt 4.6106955e-2 0.37599487
vt 4.6106955e-2 0.39055938
vt 4.6106955e-2 0.40512389
vt 5.1883954e-2 0.19977559
vt 5.1883954e-2 0.19977559
vt 5.1883954e-2 0.20443587
vt 5.1883954e-2 0.20443587
vt 5.1883954e-2 0.21489154
vt 5.1883954e-2 0.21489154
vt 5.1883954e-2 0.22944519
vt 5.1883954e-2 0.22944519
vt 5.2083533e-2 0.21489796
vt 5.2083533e-2 0.21489796
vt 5.2083533e-2 0.22944669
vt 5.2083533e-2 0.22944669
vt 5.6349378e-2 0.20461046
vt 5.6349378e-2 0.25879748
vt 5.6349378e-2 0.37525347
vt 5.6349378e-2 0.20461046
vt 5.6349378e-2 0.25879748
vt 5.6349378e-2 0.37525347
vt 5.6349990e-2 0.37536077
vt 5.6349990e-2 0.25887669
vt 5.6349990e-2 0.25887669
vt 5.6349990e-2 0.37536077
vt 5.6405617e-2 0.38026072
vt 5.6405617e-2 0.40085804
vt 6.0671462e-2 0.39055938
vt 6.6648039e-2 0.25899600
vt 6.6648039e-2 0.37525347
vt 6.6648039e-2 0.20034924
vt 6.6648039e-2 0.20034924
vt 6.6648039e-2 0.25899600
vt 6.6648039e-2 0.37525347
vt 7.6946701e-2 0.20461046
vt 7.6946701e-2 0.37525347
vt 7.6946701e-2 0.25879748
vt 7.6946701e-2 0.20461046
vt 7.6946701e-2 0.25879748
vt 7.6946701e-2 0.37525347
vt 8.1212546e-2 0.21489796
vt 8.1212546e-2 0.21489796
vt 8.1212546e-2 0.22944669
vt 8.1212546e-2 0.22944669
vn 0.99307625 2.6660265e-15 -0.11747157
vn -1.8923592e-16 -0.99963210 2.7123156e-2
vn -0.99307625 1.9757161e-15 -0.11747157
vn 1.0644521e-16 0.99963210 2.7123156e-2
vn -4.9303807e-32 0.0000000e+0 1.00000000
vn 0.0000000e+0 0.98078528 -0.19509032
vn -1.00000000 0.0000000e+0 0.0000000e+0
vn -1.00000000 0.0000000e+0 0.0000000e+0
vn 0.0000000e+0 0.98078528 -0.19509032
vn 0.0000000e+0 0.70710678 -0.70710678
vn 0.0000000e+0 0.70710678 -0.70710678
vn -1.00000000 0.0000000e+0 0.0000000e+0
vn 0.0000000e+0 2.9441570e-15 -1.00000000
vn 0.0000000e+0 2.9441570e-15 -1.00000000
vn -1.00000000 0.0000000e+0 0.0000000e+0
vn 0.0000000e+0 -0.70710678 -0.70710678
vn 0.0000000e+0 -0.70710678 -0.70710678
vn -1.00000000 0.0000000e+0 0.0000000e+0
vn 0.0000000e+0 -0.98078528 -0.19509032
vn -1.00000000 0.0000000e+0 0.0000000e+0
vn -1.00000000 0.0000000e+0 0.0000000e+0
vn 0.0000000e+0 -0.98078528 -0.19509032
vn 1.00000000 0.0000000e+0 0.0000000e+0
vn 0.0000000e+0 0.98078528 -0.19509032
vn 0.0000000e+0 0.98078528 -0.19509032
vn 1.00000000 0.0000000e+0 0.0000000e+0
vn 1.00000000 0.0000000e+0 0.0000000e+0
vn 0.0000000e+0 0.70710678 -0.70710678
vn 0.0000000e+0 0.70710678 -0.70710678
vn 1.00000000 0.0000000e+0 0.0000000e+0
vn 0.0000000e+0 2.9441570e-15 -1.00000000
vn 0.0000000e+0 2.9441570e-15 -1.00000000
vn 1.00000000 0.0000000e+0 0.0000000e+0
vn 0.0000000e+0 -0.70710678 -0.70710678
vn 0.0000000e+0 -0.70710678 -0.70710678
vn 1.00000000 0.0000000e+0 0.0000000e+0
vn 0.0000000e+0 -0.98078528 -0.19509032
vn 1.00000000 0.0000000e+0 0.0000000e+0
vn 0.0000000e+0 -0.98078528 -0.19509032
vn -0.98043604 -0.13001617 -0.14778690
vn -0.12956795 -0.99133537 2.1594658e-2
vn -0.98043604 -0.13001617 -0.14778690
vn -0.12956795 -0.99133537 2.1594658e-2
vn -0.98043604 -0.13001617 -0.14778690
vn -0.12956795 -0.99133537 2.1594658e-2
vn -0.98043604 0.13001617 -0.14778690
vn -0.12956795 0.99133537 2.1594658e-2
vn -0.12956795 0.99133537 2.1594658e-2
vn -0.98043604 0.13001617 -0.14778690
vn -0.12956795 0.99133537 2.1594658e-2
vn -0.98043604 0.13001617 -0.14778690
vn 0.12956795 0.99133537 2.1594658e-2
vn 0.98043604 0.13001617 -0.14778690
vn 0.98043604 0.13001617 -0.14778690
vn 0.12956795 0.99133537 2.1594658e-2
vn 0.98043604 0.13001617 -0.14778690
vn 0.12956795 0.99133537 2.1594658e-2
vn 0.98043604 -0.13001617 -0.14778690
vn 0.12956795 -0.99133537 2.1594658e-2
vn 0.98043604 -0.13001617 -0.14778690
vn 0.12956795 -0.99133537 2.1594658e-2
vn 0.98043604 -0.13001617 -0.14778690
vn 0.12956795 -0.99133537 2.1594658e-2
vn 0.70669078 -0.70738103 -1.4149889e-2
vn 0.70669078 -0.70738103 -1.4149889e-2
vn 0.70669078 -0.70738103 -1.4149889e-2
vn 0.70669078 -0.70738103 -1.4149889e-2
vn -0.70669078 -0.70738103 -1.4149889e-2
vn -0.70669078 -0.70738103 -1.4149889e-2
vn -0.70669078 -0.70738103 -1.4149889e-2
vn -0.70669078 -0.70738103 -1.4149889e-2
vn -0.70669078 0.70738103 -1.4149889e-2
vn -0.70669078 0.70738103 -1.4149889e-2
vn -0.70669078 0.70738103 -1.4149889e-2
vn -0.70669078 0.70738103 -1.4149889e-2
vn 0.70669078 0.70738103 -1.4149889e-2
vn 0.70669078 0.70738103 -1.4149889e-2
vn 0.70669078 0.70738103 -1.4149889e-2
vn 0.70669078 0.70738103 -1.4149889e-2
vn 1.00000000 3.3947933e-15 0.0000000e+0
vn 1.00000000 3.3947933e-15 0.0000000e+0
vn 0.0000000e+0 0.0000000e+0 1.00000000
vn 0.0000000e+0 0.0000000e+0 1.00000000
vn 0.70710678 -0.70710678 0.0000000e+0
vn 0.70710678 -0.70710678 0.0000000e+0
vn 8.7227359e-16 0.0000000e+0 1.00000000
vn 8.7227359e-16 0.0000000e+0 1.00000000
vn -2.4033935e-16 -1.00000000 0.0000000e+0
vn -2.4033935e-16 -1.00000000 0.0000000e+0
vn -9.8607613e-31 0.0000000e+0 1.00000000
vn -9.8607613e-31 0.0000000e+0 1.00000000
vn -0.70710678 -0.70710678 0.0000000e+0
vn -0.70710678 -0.70710678 0.0000000e+0
vn -8.7227359e-16 0.0000000e+0 1.00000000
vn -8.7227359e-16 0.0000000e+0 1.00000000
vn -1.00000000 2.4935207e-15 0.0000000e+0
vn -1.00000000 2.4935207e-15 0.0000000e+0
vn 0.0000000e+0 0.0000000e+0 1.00000000
vn 0.0000000e+0 0.0000000e+0 1.00000000
vn -0.70710678 0.70710678 0.0000000e+0
vn -0.70710678 0.70710678 0.0000000e+0
vn -8.7227359e-16 0.0000000e+0 1.00000000
vn -8.7227359e-16 0.0000000e+0 1.00000000
vn 1.5021209e-16 1.00000000 0.0000000e+0
vn 1.5021209e-16 1.00000000 0.0000000e+0
vn 7.8886091e-31 0.0000000e+0 1.00000000
vn 7.8886091e-31 0.0000000e+0 1.00000000
vn 0.70710678 0.70710678 0.0000000e+0
vn 0.70710678 0.70710678 0.0000000e+0
vn 8.7227359e-16 0.0000000e+0 1.00000000
vn 8.7227359e-16 0.0000000e+0 1.00000000
g big_piston_base_auv
usemtl base_auv
s 1
f 23/47/82 31/21/5 24/46/86
f 24/46/87 31/21/5 25/22/90
f 25/22/91 31/21/5 26/7/94
f 26/7/95 31/21/5 27/1/98
f 27/1/99 31/21/5 28/6/102
f 28/6/103 31/21/5 29/20/106
f 29/20/107 31/21/5 30/45/110
f 30/45/111 31/21/5 23/47/83
s 2
f 1/10/6 6/27/24 7/25/29 2/9/11
f 1/10/9 12/11/47 13/29/52 6/27/25
f 2/57/12 3/51/15 4/38/18 5/31/20 1/61/7
f 2/9/10 7/25/28 8/23/32 3/8/14
f 3/24/13 8/12/31 9/13/35 4/26/17
f 4/26/16 9/13/34 10/14/37 5/28/19
f 5/31/21 11/33/40 12/62/46 1/61/8
f 6/32/23 10/60/36 9/54/33 8/50/30 7/35/27
f 6/32/26 13/34/53 14/63/58 10/60/38
f 10/14/39 14/15/59 11/30/41 5/28/22
f 11/33/44 19/52/3 12/62/51
f 12/11/50 21/16/4 13/29/57
f 13/34/56 15/48/1 14/63/62
f 14/15/63 17/19/2 11/30/45
f 15/48/1 13/34/54 22/36/78
f 15/48/1 23/49/81 24/55/85 16/56/65
f 16/56/66 14/63/60 15/48/1
f 16/3/64 24/4/84 25/17/89 17/19/2
f 17/19/2 14/15/61 16/3/67
f 17/19/2 25/17/88 26/41/93 18/43/69
f 18/43/71 11/30/43 17/19/2
f 18/39/68 26/40/92 27/53/97 19/52/3
f 19/52/3 11/33/42 18/39/70
f 19/52/3 27/53/96 28/59/101 20/58/73
f 20/58/75 12/62/49 19/52/3
f 20/2/72 28/5/100 29/18/105 21/16/4
f 21/16/4 12/11/48 20/2/74
f 21/16/4 29/18/104 30/44/109 22/42/77
f 22/42/79 13/29/55 21/16/4
f 22/36/76 30/37/108 23/49/80 15/48/1
