# Exported from Wings 3D 1.5.4
mtllib pearl_engine_s0_1_gimbal_lower.mtl
o pearl_engine_s0_1_gimbal_lower
#16 vertices, 8 faces
v 9.3750000e-3 1.7303197e-17 7.5000000e-2
v 6.6291261e-3 -6.6291261e-3 7.5000000e-2
v 1.5552562e-18 -9.3750000e-3 7.5000000e-2
v -6.6291261e-3 -6.6291261e-3 7.5000000e-2
v -9.3750000e-3 1.6155091e-17 7.5000000e-2
v -6.6291261e-3 6.6291261e-3 7.5000000e-2
v -7.4095660e-19 9.3750000e-3 7.5000000e-2
v 6.6291261e-3 6.6291261e-3 7.5000000e-2
v 9.3750000e-3 1.6155091e-17 -6.9388939e-18
v 6.6291261e-3 -6.6291261e-3 -6.9388939e-18
v 1.5552562e-18 -9.3750000e-3 0.0000000e+0
v -6.6291261e-3 -6.6291261e-3 -6.9388939e-18
v -9.3750000e-3 1.5006984e-17 -6.9388939e-18
v -6.6291261e-3 6.6291261e-3 -6.9388939e-18
v -7.4095660e-19 9.3750000e-3 -6.9388939e-18
v 6.6291261e-3 6.6291261e-3 -6.9388939e-18
vt 0.97557949 0.94271760
vt 0.97557949 0.95621760
vt 0.97730156 0.94271760
vt 0.97730156 0.95621760
vt 0.97902364 0.94271760
vt 0.97902364 0.95621760
vt 0.98074571 0.94271760
vt 0.98074571 0.95621760
vt 0.98246779 0.94271760
vt 0.98246779 0.95621760
vn 1.00000000 9.0127256e-17 1.7036594e-18
vn 1.00000000 9.0127256e-17 1.7036594e-18
vn 0.70710678 -0.70710678 1.8740253e-17
vn 0.70710678 -0.70710678 1.8740253e-17
vn 1.5021209e-16 -1.00000000 2.2147572e-17
vn 1.5021209e-16 -1.00000000 2.2147572e-17
vn -0.70710678 -0.70710678 1.1925615e-17
vn -0.70710678 -0.70710678 1.1925615e-17
vn -1.00000000 -9.0127256e-17 -3.4073187e-18
vn -1.00000000 -9.0127256e-17 -3.4073187e-18
vn -0.70710678 0.70710678 -2.0443912e-17
vn -0.70710678 0.70710678 -2.0443912e-17
vn -9.0127256e-17 1.00000000 -2.3851231e-17
vn -9.0127256e-17 1.00000000 -2.3851231e-17
vn 0.70710678 0.70710678 -1.3629275e-17
vn 0.70710678 0.70710678 -1.3629275e-17
vn 1.00000000 9.0127256e-17 1.7036594e-18
vn 1.00000000 9.0127256e-17 1.7036594e-18
vn 0.70710678 -0.70710678 1.8740253e-17
vn 0.70710678 -0.70710678 1.8740253e-17
vn 1.5021209e-16 -1.00000000 2.2147572e-17
vn 1.5021209e-16 -1.00000000 2.2147572e-17
vn -0.70710678 -0.70710678 1.1925615e-17
vn -0.70710678 -0.70710678 1.1925615e-17
vn -1.00000000 -9.0127256e-17 -3.4073187e-18
vn -1.00000000 -9.0127256e-17 -3.4073187e-18
vn -0.70710678 0.70710678 -2.0443912e-17
vn -0.70710678 0.70710678 -2.0443912e-17
vn -9.0127256e-17 1.00000000 -2.3851231e-17
vn -9.0127256e-17 1.00000000 -2.3851231e-17
vn 0.70710678 0.70710678 -1.3629275e-17
vn 0.70710678 0.70710678 -1.3629275e-17
g pearl_engine_s0_1_gimbal_lower_pearl_engine_s0_1_gimbal_lower_auv
usemtl pearl_engine_s0_1_gimbal_lower_auv
s 2
f 1/9/1 9/10/17 16/8/31 8/7/15
f 2/3/4 10/4/20 9/2/18 1/1/2
f 3/5/6 11/6/22 10/4/19 2/3/3
f 4/7/8 12/8/24 11/6/21 3/5/5
f 5/9/10 13/10/26 12/8/23 4/7/7
f 6/3/12 14/4/28 13/2/25 5/1/9
f 7/5/14 15/6/30 14/4/27 6/3/11
f 8/7/16 16/8/32 15/6/29 7/5/13
