# Blender v2.92.0 OBJ File: ''
# www.blender.org
mtllib base.mtl
o base.001
v 0.000000 2.500000 1.300000
v 0.000000 2.500000 1.274000
v 0.000000 -0.000000 1.274000
v 0.000000 -0.000000 1.300000
v -0.000000 0.000000 -1.300000
v -0.000000 0.000000 -1.274000
v -0.000000 2.500000 -1.274000
v -0.000000 2.500000 -1.300000
v 0.844808 0.050000 1.039375
v 0.785307 0.050000 1.085032
v 0.747259 0.050000 1.035448
v 0.806761 0.050000 0.989790
v 0.806761 0.200000 0.989790
v 0.747259 0.200000 1.035448
v 0.770088 0.200000 1.065198
v 0.829589 0.200000 1.019541
v 0.844808 0.050000 -1.039375
v 0.785307 0.050000 -1.085032
v 0.770088 0.200000 -1.065198
v 0.829589 0.200000 -1.019541
v 1.300000 2.500000 0.000000
v 1.274000 2.500000 0.000000
v 1.230590 2.500000 0.329736
v 1.255704 2.500000 0.336465
v 1.103316 2.500000 0.637000
v 1.125833 2.500000 0.650000
v 0.900854 2.500000 0.900854
v 0.919239 2.500000 0.919239
v 0.637000 2.500000 1.103317
v 0.650000 2.500000 1.125833
v 0.329735 2.500000 1.230590
v 0.336465 2.500000 1.255704
v 0.329735 2.500000 -1.230589
v 0.336465 2.500000 -1.255703
v 0.637000 2.500000 -1.103316
v 0.650000 2.500000 -1.125833
v 0.900854 2.500000 -0.900854
v 0.919239 2.500000 -0.919238
v 1.103316 2.500000 -0.637000
v 1.125833 2.500000 -0.650000
v 1.230590 2.500000 -0.329735
v 1.255704 2.500000 -0.336464
v 1.300000 -0.000000 0.000000
v 1.274000 -0.000000 0.000000
v 1.230590 0.000000 -0.329735
v 1.255704 0.000000 -0.336465
v 1.255704 -0.000000 0.336465
v 1.230590 -0.000000 0.329735
v 1.125833 -0.000000 0.650000
v 1.103316 -0.000000 0.637000
v 0.919239 -0.000000 0.919239
v 0.900854 -0.000000 0.900854
v 0.650000 -0.000000 1.125833
v 0.637000 -0.000000 1.103316
v 0.336465 -0.000000 1.255704
v 0.329735 -0.000000 1.230590
v 0.336465 0.000000 -1.255704
v 0.329735 0.000000 -1.230590
v 0.650000 0.000000 -1.125833
v 0.637000 0.000000 -1.103316
v 0.919239 0.000000 -0.919239
v 0.900854 0.000000 -0.900854
v 1.125833 0.000000 -0.650000
v 1.103316 0.000000 -0.637000
v 0.806761 0.200000 -0.989790
v 0.806761 0.050000 -0.989790
v 0.747259 0.050000 -1.035448
v 0.747259 0.200000 -1.035448
v 0.000000 2.500000 1.300000
v 0.000000 -0.000000 1.300000
v -0.000000 0.000000 -1.300000
v -0.000000 2.500000 -1.300000
v 1.300000 2.500000 0.000000
v 1.255704 2.500000 0.336465
v 1.125833 2.500000 0.650000
v 0.919239 2.500000 0.919239
v 0.650000 2.500000 1.125833
v 0.336465 2.500000 1.255704
v 0.336465 2.500000 -1.255703
v 0.650000 2.500000 -1.125833
v 0.919239 2.500000 -0.919238
v 1.125833 2.500000 -0.650000
v 1.255704 2.500000 -0.336464
v 1.300000 -0.000000 0.000000
v 1.255704 0.000000 -0.336465
v 1.255704 -0.000000 0.336465
v 1.125833 -0.000000 0.650000
v 0.919239 -0.000000 0.919239
v 0.650000 -0.000000 1.125833
v 0.336465 -0.000000 1.255704
v 0.336465 0.000000 -1.255704
v 0.650000 0.000000 -1.125833
v 0.919239 0.000000 -0.919239
v 1.125833 0.000000 -0.650000
vt 0.563336 0.990000
vt 0.558448 0.990000
vt 0.558448 0.501230
vt 0.563336 0.501230
vt 0.558448 0.501230
vt 0.563336 0.501230
vt 0.563336 0.990000
vt 0.558448 0.990000
vt 0.769576 0.740376
vt 0.754994 0.740376
vt 0.754994 0.728225
vt 0.769576 0.728225
vt 0.769576 0.777232
vt 0.754994 0.777232
vt 0.754994 0.769942
vt 0.769576 0.769942
vt 0.754994 0.740376
vt 0.769576 0.740376
vt 0.769576 0.769942
vt 0.754994 0.769942
vt 0.558469 0.926203
vt 0.563315 0.926841
vt 0.563315 0.989362
vt 0.558469 0.990000
vt 0.558469 0.926203
vt 0.563315 0.926841
vt 0.563315 0.989362
vt 0.558469 0.990000
vt 0.558469 0.926203
vt 0.563315 0.926841
vt 0.563315 0.989362
vt 0.558469 0.990000
vt 0.558469 0.926203
vt 0.563315 0.926841
vt 0.563315 0.989362
vt 0.558469 0.990000
vt 0.558469 0.926203
vt 0.563315 0.926841
vt 0.563315 0.989362
vt 0.558469 0.990000
vt 0.558469 0.926203
vt 0.563315 0.926841
vt 0.563315 0.989362
vt 0.558469 0.990000
vt 0.558469 0.926203
vt 0.563315 0.926841
vt 0.563315 0.989362
vt 0.558469 0.990000
vt 0.558469 0.926203
vt 0.563315 0.926841
vt 0.563315 0.989362
vt 0.558469 0.990000
vt 0.558469 0.926203
vt 0.563315 0.926841
vt 0.563315 0.989362
vt 0.558469 0.990000
vt 0.558469 0.926203
vt 0.563315 0.926841
vt 0.563315 0.989362
vt 0.558469 0.990000
vt 0.558469 0.926203
vt 0.563315 0.926841
vt 0.563315 0.989362
vt 0.558469 0.990000
vt 0.558469 0.926203
vt 0.563315 0.926841
vt 0.563315 0.989362
vt 0.558469 0.990000
vt 0.558469 0.926203
vt 0.563315 0.926841
vt 0.563315 0.989362
vt 0.558469 0.990000
vt 0.558469 0.926203
vt 0.563315 0.926841
vt 0.563315 0.989362
vt 0.558469 0.990000
vt 0.558469 0.926203
vt 0.563315 0.926841
vt 0.563315 0.989362
vt 0.558469 0.990000
vt 0.558469 0.926203
vt 0.563315 0.926841
vt 0.563315 0.989362
vt 0.558469 0.990000
vt 0.558469 0.926203
vt 0.563315 0.926841
vt 0.563315 0.989362
vt 0.558469 0.990000
vt 0.558469 0.926203
vt 0.563315 0.926841
vt 0.563315 0.989362
vt 0.558469 0.990000
vt 0.558469 0.926203
vt 0.563315 0.926841
vt 0.563315 0.989362
vt 0.558469 0.990000
vt 0.558469 0.926203
vt 0.563315 0.926841
vt 0.563315 0.989362
vt 0.558469 0.990000
vt 0.558469 0.926203
vt 0.563315 0.926841
vt 0.563315 0.989362
vt 0.558469 0.990000
vt 0.558469 0.926203
vt 0.563315 0.926841
vt 0.563315 0.989362
vt 0.558469 0.990000
vt 0.558469 0.926203
vt 0.563315 0.926841
vt 0.563315 0.989362
vt 0.558469 0.990000
vt 0.558469 0.926203
vt 0.563315 0.926841
vt 0.563315 0.989362
vt 0.558469 0.990000
vt 0.747803 0.771140
vt 0.743008 0.742374
vt 0.781562 0.742374
vt 0.776767 0.771140
vt 0.392783 0.501535
vt 0.392783 0.013207
vt 0.328986 0.013207
vt 0.328986 0.501535
vt 0.328986 0.501535
vt 0.328986 0.013207
vt 0.265189 0.501535
vt 0.265189 0.013207
vt 0.201392 0.501535
vt 0.201392 0.013207
vt 0.137594 0.501535
vt 0.137594 0.013207
vt 0.073797 0.501535
vt 0.073797 0.013207
vt 0.010347 0.501535
vt 0.010347 0.013207
vt 0.073797 0.501535
vt 0.073797 0.013207
vt 0.010347 0.013207
vt 0.010347 0.501535
vt 0.137594 0.501535
vt 0.137594 0.013207
vt 0.201392 0.501535
vt 0.201392 0.013207
vt 0.265189 0.501535
vt 0.265189 0.013207
vt 0.538653 0.990000
vt 0.538653 0.501230
vt 0.475673 0.501230
vt 0.475673 0.990000
vt 0.475673 0.501230
vt 0.475673 0.990000
vt 0.413687 0.990000
vt 0.413687 0.501230
vt 0.538653 0.501230
vt 0.538653 0.990000
vt 0.475673 0.990000
vt 0.475673 0.501230
vt 0.413687 0.501230
vt 0.413687 0.990000
vt 0.538653 0.990000
vt 0.538653 0.501230
vt 0.475673 0.501230
vt 0.475673 0.990000
vt 0.413687 0.990000
vt 0.413687 0.501230
vt 0.538653 0.501230
vt 0.538653 0.990000
vt 0.475673 0.990000
vt 0.475673 0.501230
vt 0.413687 0.501230
vt 0.413687 0.990000
vt 0.538653 0.990000
vt 0.538653 0.501230
vt 0.475673 0.501230
vt 0.475673 0.990000
vt 0.413687 0.990000
vt 0.413687 0.501230
vt 0.538653 0.501230
vt 0.538653 0.990000
vt 0.413687 0.501230
vt 0.413687 0.990000
vt 0.781562 0.742374
vt 0.776767 0.771140
vt 0.747803 0.771140
vt 0.743008 0.742374
vt 0.754994 0.728225
vt 0.769576 0.728225
vt 0.769576 0.777232
vt 0.754994 0.777232
vn -1.0000 -0.0000 0.0000
vn 0.0000 -1.0000 -0.0000
vn 0.0000 1.0000 0.0000
vn 0.6005 0.1644 -0.7826
vn 0.6005 0.1644 0.7826
vn 0.7934 -0.0000 0.6088
vn -0.7934 0.0000 -0.6088
vn 1.0000 0.0000 0.0000
vn 0.9659 0.0000 -0.2588
vn 0.9659 -0.0000 0.2588
vn 0.8660 -0.0000 0.5000
vn 0.7071 -0.0000 0.7071
vn 0.5000 -0.0000 0.8660
vn 0.2588 -0.0000 0.9659
vn -0.0000 -0.0000 1.0000
vn 0.2588 0.0000 -0.9659
vn -0.0000 0.0000 -1.0000
vn 0.5000 0.0000 -0.8660
vn 0.7071 0.0000 -0.7071
vn 0.8660 0.0000 -0.5000
vn -0.9659 -0.0000 0.2588
vn -0.9659 0.0000 -0.2588
vn -0.8660 0.0000 -0.5000
vn -0.7071 0.0000 -0.7071
vn -0.5000 0.0000 -0.8660
vn -0.2588 0.0000 -0.9659
vn -0.1305 0.0000 -0.9914
vn -0.2588 -0.0000 0.9659
vn -0.1305 -0.0000 0.9914
vn -0.5000 -0.0000 0.8660
vn -0.7071 -0.0000 0.7071
vn -0.8660 -0.0000 0.5000
vn 0.7934 0.0000 -0.6088
vn -0.7934 0.0000 0.6088
usemtl base_auv.001
s 1
f 69/1/1 2/2/1 3/3/1 70/4/1
f 71/5/1 6/6/1 7/7/1 72/8/1
f 9/9/2 10/10/2 11/11/2 12/12/2
f 13/13/3 14/14/3 15/15/3 16/16/3
f 17/17/4 18/18/4 19/19/4 20/20/4
f 73/21/3 22/22/3 23/23/3 74/24/3
f 74/25/3 23/26/3 25/27/3 75/28/3
f 75/29/3 25/30/3 27/31/3 76/32/3
f 76/33/3 27/34/3 29/35/3 77/36/3
f 77/37/3 29/38/3 31/39/3 32/40/3
f 32/41/3 31/42/3 2/43/3 69/44/3
f 72/45/3 7/46/3 33/47/3 79/48/3
f 79/49/3 33/50/3 35/51/3 36/52/3
f 36/53/3 35/54/3 37/55/3 81/56/3
f 81/57/3 37/58/3 39/59/3 82/60/3
f 82/61/3 39/62/3 41/63/3 83/64/3
f 83/65/3 41/66/3 22/67/3 73/68/3
f 43/69/2 44/70/2 45/71/2 85/72/2
f 86/73/2 48/74/2 44/75/2 43/76/2
f 87/77/2 50/78/2 48/79/2 86/80/2
f 88/81/2 52/82/2 50/83/2 87/84/2
f 89/85/2 54/86/2 52/87/2 88/88/2
f 55/89/2 56/90/2 54/91/2 89/92/2
f 70/93/2 3/94/2 56/95/2 55/96/2
f 91/97/2 58/98/2 6/99/2 71/100/2
f 59/101/2 60/102/2 58/103/2 91/104/2
f 93/105/2 62/106/2 60/107/2 59/108/2
f 94/109/2 64/110/2 62/111/2 93/112/2
f 85/113/2 45/114/2 64/115/2 94/116/2
f 16/16/5 15/15/5 10/10/5 9/9/5
f 17/17/6 20/20/6 65/117/6 66/118/6
f 67/119/7 68/120/7 19/19/7 18/18/7
f 21/121/8 84/122/8 46/123/9 42/124/9
f 24/125/10 47/126/10 84/122/8 21/121/8
f 26/127/11 49/128/11 47/126/10 24/125/10
f 28/129/12 51/130/12 49/128/11 26/127/11
f 30/131/13 53/132/13 51/130/12 28/129/12
f 78/133/14 90/134/14 53/132/13 30/131/13
f 1/135/15 4/136/15 90/134/14 78/133/14
f 34/137/16 57/138/16 5/139/17 8/140/17
f 80/141/18 92/142/18 57/138/16 34/137/16
f 38/143/19 61/144/19 92/142/18 80/141/18
f 40/145/20 63/146/20 61/144/19 38/143/19
f 42/124/9 46/123/9 63/146/20 40/145/20
f 44/147/1 22/148/1 41/149/21 45/150/21
f 48/151/22 23/152/22 22/153/1 44/154/1
f 50/155/23 25/156/23 23/152/22 48/151/22
f 52/157/24 27/158/24 25/159/23 50/160/23
f 54/161/25 29/162/25 27/158/24 52/157/24
f 56/163/26 31/164/26 29/165/25 54/166/25
f 3/167/27 2/168/27 31/164/26 56/163/26
f 58/169/28 33/170/28 7/171/29 6/172/29
f 60/173/30 35/174/30 33/170/28 58/169/28
f 62/175/31 37/176/31 35/177/30 60/178/30
f 64/179/32 39/180/32 37/176/31 62/175/31
f 45/150/21 41/149/21 39/181/32 64/182/32
f 12/183/33 13/184/33 16/16/33 9/9/33
f 10/10/34 15/15/34 14/185/34 11/186/34
f 66/187/2 67/188/2 18/18/2 17/17/2
f 20/20/3 19/19/3 68/189/3 65/190/3
