# Exported from Wings 3D 1.5.4
mtllib ./cap.mtl
o cap
#121 vertices, 120 faces
v 0.10450019 0.23850680 2.0407052e-18
v 0.10093943 0.23850680 2.7046638e-2
v 9.0499815e-2 0.23850680 5.2250093e-2
v 7.3892789e-2 0.23850680 7.3892789e-2
v 5.2250093e-2 0.23850680 9.0499815e-2
v 2.7046638e-2 0.23850680 0.10093943
v -5.3329995e-17 0.23850680 0.10450019
v -2.7046638e-2 0.23850680 0.10093943
v -5.2250093e-2 0.23850680 9.0499815e-2
v -7.3892789e-2 0.23850680 7.3892789e-2
v -9.0499815e-2 0.23850680 5.2250093e-2
v -0.10093943 0.23850680 2.7046638e-2
v -0.10450019 0.23850680 1.4838287e-17
v -0.10093943 0.23850680 -2.7046638e-2
v -9.0499815e-2 0.23850680 -5.2250093e-2
v -7.3892789e-2 0.23850680 -7.3892789e-2
v -5.2250093e-2 0.23850680 -9.0499815e-2
v -2.7046638e-2 0.23850680 -0.10093943
v -7.8925158e-17 0.23850680 -0.10450019
v 2.7046638e-2 0.23850680 -0.10093943
v 5.2250093e-2 0.23850680 -9.0499815e-2
v 7.3892789e-2 0.23850680 -7.3892789e-2
v 9.0499815e-2 0.23850680 -5.2250093e-2
v 0.10093943 0.23850680 -2.7046638e-2
v 0.20187886 0.20481043 2.0407052e-18
v 0.19500000 0.20481043 5.2250093e-2
v 0.17483222 0.20481043 0.10093943
v 0.14274991 0.20481043 0.14274991
v 0.10093943 0.20481043 0.17483222
v 5.2250093e-2 0.20481043 0.19500000
v -4.7367271e-17 0.20481043 0.20187886
v -5.2250093e-2 0.20481043 0.19500000
v -0.10093943 0.20481043 0.17483222
v -0.14274991 0.20481043 0.14274991
v -0.17483222 0.20481043 0.10093943
v -0.19500000 0.20481043 5.2250093e-2
v -0.20187886 0.20481043 2.6763735e-17
v -0.19500000 0.20481043 -5.2250093e-2
v -0.17483222 0.20481043 -0.10093943
v -0.14274991 0.20481043 -0.14274991
v -0.10093943 0.20481043 -0.17483222
v -5.2250093e-2 0.20481043 -0.19500000
v -9.6813329e-17 0.20481043 -0.20187886
v 5.2250093e-2 0.20481043 -0.19500000
v 0.10093943 0.20481043 -0.17483222
v 0.14274991 0.20481043 -0.14274991
v 0.17483222 0.20481043 -0.10093943
v 0.19500000 0.20481043 -5.2250093e-2
v 0.28549981 0.15120725 2.0407052e-18
v 0.27577164 0.15120725 7.3892789e-2
v 0.24725009 0.15120725 0.14274991
v 0.20187886 0.15120725 0.20187886
v 0.14274991 0.15120725 0.24725009
v 7.3892789e-2 0.15120725 0.27577164
v -4.2246964e-17 0.15120725 0.28549981
v -7.3892789e-2 0.15120725 0.27577164
v -0.14274991 0.15120725 0.24725009
v -0.20187886 0.15120725 0.20187886
v -0.24725009 0.15120725 0.14274991
v -0.27577164 0.15120725 7.3892789e-2
v -0.28549981 0.15120725 3.7004349e-17
v -0.27577164 0.15120725 -7.3892789e-2
v -0.24725009 0.15120725 -0.14274991
v -0.20187886 0.15120725 -0.20187886
v -0.14274991 0.15120725 -0.24725009
v -7.3892789e-2 0.15120725 -0.27577164
v -1.1217425e-16 0.15120725 -0.28549981
v 7.3892789e-2 0.15120725 -0.27577164
v 0.14274991 0.15120725 -0.24725009
v 0.20187886 0.15120725 -0.20187886
v 0.24725009 0.15120725 -0.14274991
v 0.27577164 0.15120725 -7.3892789e-2
v 0.34966443 8.1350227e-2 2.0407052e-18
v 0.33774991 8.1350227e-2 9.0499815e-2
v 0.30281828 8.1350227e-2 0.17483222
v 0.24725009 8.1350227e-2 0.24725009
v 0.17483222 8.1350227e-2 0.30281828
v 9.0499815e-2 8.1350227e-2 0.33774991
v -3.8318014e-17 8.1350227e-2 0.34966443
v -9.0499815e-2 8.1350227e-2 0.33774991
v -0.17483222 8.1350227e-2 0.30281828
v -0.24725009 8.1350227e-2 0.24725009
v -0.30281828 8.1350227e-2 0.17483222
v -0.33774991 8.1350227e-2 9.0499815e-2
v -0.34966443 8.1350227e-2 4.4862248e-17
v -0.33774991 8.1350227e-2 -9.0499815e-2
v -0.30281828 8.1350227e-2 -0.17483222
v -0.24725009 8.1350227e-2 -0.24725009
v -0.17483222 8.1350227e-2 -0.30281828
v -9.0499815e-2 8.1350227e-2 -0.33774991
v -1.2396110e-16 8.1350227e-2 -0.34966443
v 9.0499815e-2 8.1350227e-2 -0.33774991
v 0.17483222 8.1350227e-2 -0.30281828
v 0.24725009 8.1350227e-2 -0.24725009
v 0.30281828 8.1350227e-2 -0.17483222
v 0.33774991 8.1350227e-2 -9.0499815e-2
v 0.39000000 0.0000000e+0 2.0407052e-18
v 0.37671107 0.0000000e+0 0.10093943
v 0.33774991 0.0000000e+0 0.19500000
v 0.27577164 0.0000000e+0 0.27577164
v 0.19500000 0.0000000e+0 0.33774991
v 0.10093943 0.0000000e+0 0.37671107
v -3.5848173e-17 0.0000000e+0 0.39000000
v -0.10093943 0.0000000e+0 0.37671107
v -0.19500000 0.0000000e+0 0.33774991
v -0.27577164 0.0000000e+0 0.27577164
v -0.33774991 0.0000000e+0 0.19500000
v -0.37671107 0.0000000e+0 0.10093943
v -0.39000000 0.0000000e+0 4.9801930e-17
v -0.37671107 0.0000000e+0 -0.10093943
v -0.33774991 0.0000000e+0 -0.19500000
v -0.27577164 0.0000000e+0 -0.27577164
v -0.19500000 0.0000000e+0 -0.33774991
v -0.10093943 0.0000000e+0 -0.37671107
v -1.3137062e-16 0.0000000e+0 -0.39000000
v 0.10093943 0.0000000e+0 -0.37671107
v 0.19500000 0.0000000e+0 -0.33774991
v 0.27577164 0.0000000e+0 -0.27577164
v 0.33774991 0.0000000e+0 -0.19500000
v 0.37671107 0.0000000e+0 -0.10093943
v -5.9728785e-17 0.25000000 2.0407052e-18
vt 0.58475395 0.70282508
vt 0.58724961 0.68386861
vt 0.58724961 0.72178155
vt 0.59456654 0.66620399
vt 0.59456654 0.73944617
vt 0.59626901 0.70282508
vt 0.59837231 0.68684893
vt 0.59837231 0.71880123
vt 0.60453888 0.67196152
vt 0.60453888 0.73368864
vt 0.60620609 0.65103503
vt 0.60620609 0.75461513
vt 0.60759615 0.70282508
vt 0.60931349 0.68978060
vt 0.60931349 0.71586956
vt 0.61434847 0.65917741
vt 0.61434847 0.67762509
vt 0.61434847 0.72802507
vt 0.61434847 0.74647275
vt 0.62008319 0.70282508
vt 0.62137504 0.76625467
vt 0.62137504 0.63939548
vt 0.62137504 0.69301249
vt 0.62137504 0.71263767
vt 0.62235796 0.66718691
vt 0.62235796 0.73846325
vt 0.62516256 0.72178155
vt 0.62516256 0.68386861
vt 0.62713257 0.75628233
vt 0.62713257 0.64936783
vt 0.63118763 0.67601658
vt 0.63118763 0.72963358
vt 0.63279614 0.74647275
vt 0.63279614 0.65917741
vt 0.63837095 0.70282508
vt 0.63903966 0.77357160
vt 0.63903966 0.63207856
vt 0.63903966 0.66999151
vt 0.63903966 0.69774571
vt 0.63903966 0.70790445
vt 0.63903966 0.73565865
vt 0.64100022 0.69301249
vt 0.64100022 0.71263767
vt 0.64201998 0.64320126
vt 0.64201998 0.76244890
vt 0.64411903 0.71670218
vt 0.64411903 0.68894798
vt 0.64495166 0.75150772
vt 0.64495166 0.65414244
vt 0.64818354 0.66620399
vt 0.64818354 0.68582917
vt 0.64818354 0.71982099
vt 0.64818354 0.73944617
vt 0.65291676 0.68386861
vt 0.65291676 0.72178155
vt 0.65799613 0.62958289
vt 0.65799613 0.64109796
vt 0.65799613 0.65242510
vt 0.65799613 0.66491213
vt 0.65799613 0.68319989
vt 0.65799613 0.70282508
vt 0.65799613 0.72245026
vt 0.65799613 0.74073803
vt 0.65799613 0.75322506
vt 0.65799613 0.76455220
vt 0.65799613 0.77606727
vt 0.66307551 0.68386861
vt 0.66307551 0.72178155
vt 0.66780873 0.71982099
vt 0.66780873 0.73944617
vt 0.66780873 0.66620399
vt 0.66780873 0.68582917
vt 0.67104061 0.65414244
vt 0.67104061 0.75150772
vt 0.67187323 0.68894798
vt 0.67187323 0.71670218
vt 0.67397229 0.64320126
vt 0.67397229 0.76244890
vt 0.67499204 0.69301249
vt 0.67499204 0.71263767
vt 0.67695261 0.73565865
vt 0.67695261 0.77357160
vt 0.67695261 0.63207856
vt 0.67695261 0.66999151
vt 0.67695261 0.69774571
vt 0.67695261 0.70790445
vt 0.67762132 0.70282508
vt 0.68319612 0.74647275
vt 0.68319612 0.65917741
vt 0.68480463 0.67601658
vt 0.68480463 0.72963358
vt 0.68885969 0.75628233
vt 0.68885969 0.64936783
vt 0.69082971 0.72178155
vt 0.69082971 0.68386861
vt 0.69363430 0.66718691
vt 0.69363430 0.73846325
vt 0.69461723 0.76625467
vt 0.69461723 0.63939548
vt 0.69461723 0.69301249
vt 0.69461723 0.71263767
vt 0.69590908 0.70282508
vt 0.70164380 0.72802507
vt 0.70164380 0.74647275
vt 0.70164380 0.65917741
vt 0.70164380 0.67762509
vt 0.70667878 0.68978060
vt 0.70667878 0.71586956
vt 0.70839612 0.70282508
vt 0.70978618 0.65103503
vt 0.70978618 0.75461513
vt 0.71145339 0.67196152
vt 0.71145339 0.73368864
vt 0.71761995 0.68684893
vt 0.71761995 0.71880123
vt 0.71972325 0.70282508
vt 0.72142573 0.73944617
vt 0.72142573 0.66620399
vt 0.72874265 0.72178155
vt 0.72874265 0.68386861
vt 0.73123832 0.70282508
vn 0.21949208 0.97561428 -4.3662993e-17
vn 0.21201306 0.97561428 5.6808729e-2
vn 0.19008571 0.97561428 0.10974604
vn 0.15520434 0.97561428 0.15520434
vn 0.10974604 0.97561428 0.19008571
vn 5.6808729e-2 0.97561428 0.21201306
vn 4.8902552e-17 0.97561428 0.21949208
vn -5.6808729e-2 0.97561428 0.21201306
vn -0.10974604 0.97561428 0.19008571
vn -0.15520434 0.97561428 0.15520434
vn -0.19008571 0.97561428 0.10974604
vn -0.21201306 0.97561428 5.6808729e-2
vn -0.21949208 0.97561428 1.4496114e-16
vn -0.21201306 0.97561428 -5.6808729e-2
vn -0.19008571 0.97561428 -0.10974604
vn -0.15520434 0.97561428 -0.15520434
vn -0.10974604 0.97561428 -0.19008571
vn -5.6808729e-2 0.97561428 -0.21201306
vn -9.2565544e-17 0.97561428 -0.21949208
vn 5.6808729e-2 0.97561428 -0.21201306
vn 0.10974604 0.97561428 -0.19008571
vn 0.15520434 0.97561428 -0.15520434
vn 0.19008571 0.97561428 -0.10974604
vn 0.21201306 0.97561428 -5.6808729e-2
vn 0.43631061 0.89979612 -1.1899827e-16
vn 0.42144368 0.89979612 0.11292549
vn 0.37785607 0.89979612 0.21815530
vn 0.30851819 0.89979612 0.30851819
vn 0.21815530 0.89979612 0.37785607
vn 0.11292549 0.89979612 0.42144368
vn 1.3299807e-16 0.89979612 0.43631061
vn -0.11292549 0.89979612 0.42144368
vn -0.21815530 0.89979612 0.37785607
vn -0.30851819 0.89979612 0.30851819
vn -0.37785607 0.89979612 0.21815530
vn -0.42144368 0.89979612 0.11292549
vn -0.43631061 0.89979612 1.7149751e-16
vn -0.42144368 0.89979612 -0.11292549
vn -0.37785607 0.89979612 -0.21815530
vn -0.30851819 0.89979612 -0.30851819
vn -0.21815530 0.89979612 -0.37785607
vn -0.11292549 0.89979612 -0.42144368
vn -1.7499746e-16 0.89979612 -0.43631061
vn 0.11292549 0.89979612 -0.42144368
vn 0.21815530 0.89979612 -0.37785607
vn 0.30851819 0.89979612 -0.30851819
vn 0.37785607 0.89979612 -0.21815530
vn 0.42144368 0.89979612 -0.11292549
vn 0.64330201 0.76561252 -1.9662050e-16
vn 0.62138202 0.76561252 0.16649881
vn 0.55711588 0.76561252 0.32165100
vn 0.45488321 0.76561252 0.45488321
vn 0.32165100 0.76561252 0.55711588
vn 0.16649881 0.76561252 0.62138202
vn 1.4395429e-16 0.76561252 0.64330201
vn -0.16649881 0.76561252 0.62138202
vn -0.32165100 0.76561252 0.55711588
vn -0.45488321 0.76561252 0.45488321
vn -0.55711588 0.76561252 0.32165100
vn -0.62138202 0.76561252 0.16649881
vn -0.64330201 0.76561252 1.8959834e-16
vn -0.62138202 0.76561252 -0.16649881
vn -0.55711588 0.76561252 -0.32165100
vn -0.45488321 0.76561252 -0.45488321
vn -0.32165100 0.76561252 -0.55711588
vn -0.16649881 0.76561252 -0.62138202
vn -2.6333103e-16 0.76561252 -0.64330201
vn 0.16649881 0.76561252 -0.62138202
vn 0.32165100 0.76561252 -0.55711588
vn 0.45488321 0.76561252 -0.45488321
vn 0.55711588 0.76561252 -0.32165100
vn 0.62138202 0.76561252 -0.16649881
vn 0.82432640 0.56611481 -1.9033612e-16
vn 0.79623816 0.56611481 0.21335137
vn 0.71388761 0.56611481 0.41216320
vn 0.58288679 0.56611481 0.58288679
vn 0.41216320 0.56611481 0.71388761
vn 0.21335137 0.56611481 0.79623816
vn 9.8692802e-17 0.56611481 0.82432640
vn -0.21335137 0.56611481 0.79623816
vn -0.41216320 0.56611481 0.71388761
vn -0.58288679 0.56611481 0.58288679
vn -0.71388761 0.56611481 0.41216320
vn -0.79623816 0.56611481 0.21335137
vn -0.82432640 0.56611481 3.3132583e-16
vn -0.79623816 0.56611481 -0.21335137
vn -0.71388761 0.56611481 -0.41216320
vn -0.58288679 0.56611481 -0.58288679
vn -0.41216320 0.56611481 -0.71388761
vn -0.21335137 0.56611481 -0.79623816
vn -3.1370212e-16 0.56611481 -0.82432640
vn 0.21335137 0.56611481 -0.79623816
vn 0.41216320 0.56611481 -0.71388761
vn 0.58288679 0.56611481 -0.58288679
vn 0.71388761 0.56611481 -0.41216320
vn 0.79623816 0.56611481 -0.21335137
vn 3.4907289e-18 1.00000000 -2.5744126e-17
vn 0.89591798 0.44421952 -1.8864886e-16
vn 0.89591798 0.44421952 -1.8864886e-16
vn 0.86539031 0.44421952 0.23188064
vn 0.86539031 0.44421952 0.23188064
vn 0.77588773 0.44421952 0.44795899
vn 0.77588773 0.44421952 0.44795899
vn 0.63350968 0.44421952 0.63350968
vn 0.63350968 0.44421952 0.63350968
vn 0.44795899 0.44421952 0.77588773
vn 0.44795899 0.44421952 0.77588773
vn 0.23188064 0.44421952 0.86539031
vn 0.23188064 0.44421952 0.86539031
vn 1.0480492e-16 0.44421952 0.89591798
vn 1.0480492e-16 0.44421952 0.89591798
vn -0.23188064 0.44421952 0.86539031
vn -0.23188064 0.44421952 0.86539031
vn -0.44795899 0.44421952 0.77588773
vn -0.44795899 0.44421952 0.77588773
vn -0.63350968 0.44421952 0.63350968
vn -0.63350968 0.44421952 0.63350968
vn -0.77588773 0.44421952 0.44795899
vn -0.77588773 0.44421952 0.44795899
vn -0.86539031 0.44421952 0.23188064
vn -0.86539031 0.44421952 0.23188064
vn -0.89591798 0.44421952 4.6812865e-16
vn -0.89591798 0.44421952 4.6812865e-16
vn -0.86539031 0.44421952 -0.23188064
vn -0.86539031 0.44421952 -0.23188064
vn -0.77588773 0.44421952 -0.44795899
vn -0.77588773 0.44421952 -0.44795899
vn -0.63350968 0.44421952 -0.63350968
vn -0.63350968 0.44421952 -0.63350968
vn -0.44795899 0.44421952 -0.77588773
vn -0.44795899 0.44421952 -0.77588773
vn -0.23188064 0.44421952 -0.86539031
vn -0.23188064 0.44421952 -0.86539031
vn -3.1441476e-16 0.44421952 -0.89591798
vn -3.1441476e-16 0.44421952 -0.89591798
vn 0.23188064 0.44421952 -0.86539031
vn 0.23188064 0.44421952 -0.86539031
vn 0.44795899 0.44421952 -0.77588773
vn 0.44795899 0.44421952 -0.77588773
vn 0.63350968 0.44421952 -0.63350968
vn 0.63350968 0.44421952 -0.63350968
vn 0.77588773 0.44421952 -0.44795899
vn 0.77588773 0.44421952 -0.44795899
vn 0.86539031 0.44421952 -0.23188064
vn 0.86539031 0.44421952 -0.23188064
g cap_base_auv
usemtl base_auv
s 2
f 1/87/1 25/102/25 48/101/48 24/86/24
f 1/87/1 121/61/97 2/85/2
f 2/85/2 26/100/26 25/102/25 1/87/1
f 2/85/2 121/61/97 3/79/3
f 3/79/3 27/95/27 26/100/26 2/85/2
f 3/79/3 121/61/97 4/75/4
f 4/75/4 28/90/28 27/95/27 3/79/3
f 4/75/4 121/61/97 5/72/5
f 5/72/5 29/84/29 28/90/28 4/75/4
f 5/72/5 121/61/97 6/67/6
f 6/67/6 30/71/30 29/84/29 5/72/5
f 6/67/6 121/61/97 7/60/7
f 7/60/7 31/59/31 30/71/30 6/67/6
f 7/60/7 121/61/97 8/54/8
f 8/54/8 32/50/32 31/59/31 7/60/7
f 8/54/8 121/61/97 9/51/9
f 9/51/9 33/38/33 32/50/32 8/54/8
f 9/51/9 121/61/97 10/47/10
f 10/47/10 34/31/34 33/38/33 9/51/9
f 10/47/10 121/61/97 11/42/11
f 11/42/11 35/28/35 34/31/34 10/47/10
f 11/42/11 121/61/97 12/39/12
f 12/39/12 36/23/36 35/28/35 11/42/11
f 12/39/12 121/61/97 13/35/13
f 13/35/13 37/20/37 36/23/36 12/39/12
f 13/35/13 121/61/97 14/40/14
f 14/40/14 38/24/38 37/20/37 13/35/13
f 14/40/14 121/61/97 15/43/15
f 15/43/15 39/27/39 38/24/38 14/40/14
f 15/43/15 121/61/97 16/46/16
f 16/46/16 40/32/40 39/27/39 15/43/15
f 16/46/16 121/61/97 17/52/17
f 17/52/17 41/41/41 40/32/40 16/46/16
f 17/52/17 121/61/97 18/55/18
f 18/55/18 42/53/42 41/41/41 17/52/17
f 18/55/18 121/61/97 19/62/19
f 19/62/19 43/63/43 42/53/42 18/55/18
f 19/62/19 121/61/97 20/68/20
f 20/68/20 44/70/44 43/63/43 19/62/19
f 20/68/20 121/61/97 21/69/21
f 21/69/21 45/81/45 44/70/44 20/68/20
f 21/69/21 121/61/97 22/76/22
f 22/76/22 46/91/46 45/81/45 21/69/21
f 22/76/22 121/61/97 23/80/23
f 23/80/23 47/94/47 46/91/46 22/76/22
f 23/80/23 121/61/97 24/86/24
f 24/86/24 48/101/48 47/94/47 23/80/23
f 24/86/24 121/61/97 1/87/1
f 25/102/25 49/109/49 72/108/72 48/101/48
f 26/100/26 50/107/50 49/109/49 25/102/25
f 27/95/27 51/106/51 50/107/50 26/100/26
f 28/90/28 52/96/52 51/106/51 27/95/27
f 29/84/29 53/89/53 52/96/52 28/90/28
f 30/71/30 54/73/54 53/89/53 29/84/29
f 31/59/31 55/58/55 54/73/54 30/71/30
f 32/50/32 56/49/56 55/58/55 31/59/31
f 33/38/33 57/34/57 56/49/56 32/50/32
f 34/31/34 58/25/58 57/34/57 33/38/33
f 35/28/35 59/17/59 58/25/58 34/31/34
f 36/23/36 60/14/60 59/17/59 35/28/35
f 37/20/37 61/13/61 60/14/60 36/23/36
f 38/24/38 62/15/62 61/13/61 37/20/37
f 39/27/39 63/18/63 62/15/62 38/24/38
f 40/32/40 64/26/64 63/18/63 39/27/39
f 41/41/41 65/33/65 64/26/64 40/32/40
f 42/53/42 66/48/66 65/33/65 41/41/41
f 43/63/43 67/64/67 66/48/66 42/53/42
f 44/70/44 68/74/68 67/64/67 43/63/43
f 45/81/45 69/88/69 68/74/68 44/70/44
f 46/91/46 70/97/70 69/88/69 45/81/45
f 47/94/47 71/103/71 70/97/70 46/91/46
f 48/101/48 72/108/72 71/103/71 47/94/47
f 49/109/49 73/116/73 96/115/96 72/108/72
f 50/107/50 74/114/74 73/116/73 49/109/49
f 51/106/51 75/112/75 74/114/74 50/107/50
f 52/96/52 76/105/76 75/112/75 51/106/51
f 53/89/53 77/93/77 76/105/76 52/96/52
f 54/73/54 78/77/78 77/93/77 53/89/53
f 55/58/55 79/57/79 78/77/78 54/73/54
f 56/49/56 80/44/80 79/57/79 55/58/55
f 57/34/57 81/30/81 80/44/80 56/49/56
f 58/25/58 82/16/82 81/30/81 57/34/57
f 59/17/59 83/9/83 82/16/82 58/25/58
f 60/14/60 84/7/84 83/9/83 59/17/59
f 61/13/61 85/6/85 84/7/84 60/14/60
f 62/15/62 86/8/86 85/6/85 61/13/61
f 63/18/63 87/10/87 86/8/86 62/15/62
f 64/26/64 88/19/88 87/10/87 63/18/63
f 65/33/65 89/29/89 88/19/88 64/26/64
f 66/48/66 90/45/90 89/29/89 65/33/65
f 67/64/67 91/65/91 90/45/90 66/48/66
f 68/74/68 92/78/92 91/65/91 67/64/67
f 69/88/69 93/92/93 92/78/92 68/74/68
f 70/97/70 94/104/94 93/92/93 69/88/69
f 71/103/71 95/113/95 94/104/94 70/97/70
f 72/108/72 96/115/96 95/113/95 71/103/71
f 73/116/73 97/121/99 120/119/145 96/115/96
f 74/114/74 98/120/100 97/121/98 73/116/73
f 75/112/75 99/118/102 98/120/101 74/114/74
f 76/105/76 100/110/104 99/118/103 75/112/75
f 77/93/77 101/99/106 100/110/105 76/105/76
f 78/77/78 102/83/108 101/99/107 77/93/77
f 79/57/79 103/56/110 102/83/109 78/77/78
f 80/44/80 104/37/112 103/56/111 79/57/79
f 81/30/81 105/22/114 104/37/113 80/44/80
f 82/16/82 106/11/116 105/22/115 81/30/81
f 83/9/83 107/4/118 106/11/117 82/16/82
f 84/7/84 108/2/120 107/4/119 83/9/83
f 85/6/85 109/1/122 108/2/121 84/7/84
f 86/8/86 110/3/124 109/1/123 85/6/85
f 87/10/87 111/5/126 110/3/125 86/8/86
f 88/19/88 112/12/128 111/5/127 87/10/87
f 89/29/89 113/21/130 112/12/129 88/19/88
f 90/45/90 114/36/132 113/21/131 89/29/89
f 91/65/91 115/66/134 114/36/133 90/45/90
f 92/78/92 116/82/136 115/66/135 91/65/91
f 93/92/93 117/98/138 116/82/137 92/78/92
f 94/104/94 118/111/140 117/98/139 93/92/93
f 95/113/95 119/117/142 118/111/141 94/104/94
f 96/115/96 120/119/144 119/117/143 95/113/95
