# Blender v2.92.0 OBJ File: ''
# www.blender.org
mtllib cone.mtl
o cone.001
v -0.000000 2.500000 0.390000
v -0.000000 2.491292 0.365418
v 0.000000 1.713981 0.663251
v 0.000000 1.713981 0.691170
v -0.000000 0.000000 -1.300000
v -0.000000 0.000000 -1.273776
v -0.000000 0.097807 -1.273776
v -0.000000 0.100000 -1.300000
v 0.000000 0.148458 1.291012
v 0.000000 0.141943 1.265589
v 0.000000 0.097806 1.273776
v 0.000000 0.100000 1.300000
v 0.000000 -0.000000 1.273776
v 0.000000 -0.000000 1.300000
v -0.000000 0.141944 -1.265589
v -0.000000 0.148459 -1.291012
v 0.000000 0.927962 0.992339
v 0.000000 0.927962 0.964420
v -0.000000 0.927962 -0.964419
v -0.000000 0.927962 -0.992338
v -0.000000 1.713981 -0.663250
v -0.000000 1.713981 -0.691169
v -0.000000 2.491292 -0.365417
v -0.000000 2.500000 -0.390000
v 0.390000 2.500000 0.000000
v 0.365418 2.491292 0.000000
v 0.352966 2.491292 0.094577
v 0.376711 2.500000 0.100940
v 0.316461 2.491292 0.182709
v 0.337750 2.500000 0.195000
v 0.258389 2.491292 0.258390
v 0.275772 2.500000 0.275772
v 0.182709 2.491292 0.316461
v 0.195000 2.500000 0.337750
v 0.094577 2.491292 0.352967
v 0.100939 2.500000 0.376711
v 0.094577 2.491292 -0.352966
v 0.100939 2.500000 -0.376711
v 0.182709 2.491292 -0.316461
v 0.195000 2.500000 -0.337749
v 0.258389 2.491292 -0.258389
v 0.275772 2.500000 -0.275771
v 0.316461 2.491292 -0.182708
v 0.337750 2.500000 -0.195000
v 0.352966 2.491292 -0.094577
v 0.376711 2.500000 -0.100939
v 1.300000 -0.000000 0.000000
v 1.273776 -0.000000 0.000000
v 1.230373 0.000000 -0.329677
v 1.255704 0.000000 -0.336465
v 1.255704 -0.000000 0.336465
v 1.230373 -0.000000 0.329677
v 1.125833 -0.000000 0.650000
v 1.103122 -0.000000 0.636888
v 0.919239 -0.000000 0.919239
v 0.900695 -0.000000 0.900695
v 0.650000 -0.000000 1.125833
v 0.636888 -0.000000 1.103122
v 0.336465 -0.000000 1.255704
v 0.329677 -0.000000 1.230373
v 0.336465 0.000000 -1.255704
v 0.329677 0.000000 -1.230373
v 0.650000 0.000000 -1.125833
v 0.636888 0.000000 -1.103122
v 0.919239 0.000000 -0.919239
v 0.900695 0.000000 -0.900695
v 1.125833 0.000000 -0.650000
v 1.103122 0.000000 -0.636888
v 0.691169 1.713981 0.000000
v 0.667618 1.713981 -0.178888
v 0.667618 1.713981 0.178888
v 0.598570 1.713981 0.345585
v 0.488731 1.713981 0.488731
v 0.345585 1.713981 0.598571
v 0.178888 1.713981 0.667619
v 0.178888 1.713981 -0.667618
v 0.345585 1.713981 -0.598570
v 0.488731 1.713981 -0.488730
v 0.598570 1.713981 -0.345584
v 1.300000 0.100000 0.000000
v 1.255704 0.100000 0.336465
v 1.125833 0.100000 0.650000
v 0.919239 0.100000 0.919239
v 0.650000 0.100000 1.125833
v 0.336465 0.100000 1.255704
v 0.336465 0.100000 -1.255704
v 0.650000 0.100000 -1.125833
v 0.919239 0.100000 -0.919239
v 1.125833 0.100000 -0.650000
v 1.255704 0.100000 -0.336465
v 1.247022 0.148459 -0.334138
v 1.291012 0.148459 0.000000
v 1.247022 0.148459 0.334138
v 0.992339 0.927962 0.000000
v 0.958526 0.927962 0.256836
v 1.118049 0.148458 0.645506
v 0.859390 0.927962 0.496169
v 0.912883 0.148458 0.912883
v 0.701689 0.927962 0.701690
v 0.645506 0.148458 1.118049
v 0.496169 0.927962 0.859391
v 0.334138 0.148458 1.247022
v 0.256836 0.927962 0.958526
v 0.334138 0.148459 -1.247022
v 0.256836 0.927962 -0.958525
v 0.645506 0.148459 -1.118049
v 0.496169 0.927962 -0.859390
v 0.912883 0.148459 -0.912883
v 0.701689 0.927962 -0.701689
v 1.118049 0.148459 -0.645506
v 0.859390 0.927962 -0.496169
v 0.958526 0.927962 -0.256836
v 0.663250 1.713981 0.000000
v 0.640651 1.713981 0.171662
v 0.574392 1.713981 0.331625
v 0.468989 1.713981 0.468989
v 0.331625 1.713981 0.574392
v 0.171662 1.713981 0.640651
v 0.171662 1.713981 -0.640650
v 0.331625 1.713981 -0.574391
v 0.468989 1.713981 -0.468989
v 0.574392 1.713981 -0.331625
v 0.640651 1.713981 -0.171662
v 1.273776 0.097807 0.000000
v 1.230373 0.097807 -0.329677
v 1.230373 0.097807 0.329677
v 1.103122 0.097807 0.636888
v 0.900695 0.097807 0.900695
v 0.636888 0.097807 1.103122
v 0.329677 0.097806 1.230373
v 0.329677 0.097807 -1.230373
v 0.636888 0.097807 -1.103122
v 0.900695 0.097807 -0.900695
v 1.103122 0.097807 -0.636888
v 1.222465 0.141943 0.327559
v 1.265589 0.141943 0.000000
v 0.931558 0.927962 0.249610
v 0.964420 0.927962 0.000000
v 1.222465 0.141944 -0.327558
v 1.096032 0.141943 0.632794
v 0.835212 0.927962 0.482210
v 0.894907 0.141943 0.894907
v 0.681948 0.927962 0.681948
v 0.632794 0.141943 1.096032
v 0.482210 0.927962 0.835212
v 0.327559 0.141943 1.222465
v 0.249610 0.927962 0.931558
v 0.327559 0.141944 -1.222465
v 0.249610 0.927962 -0.931558
v 0.632794 0.141944 -1.096032
v 0.482210 0.927962 -0.835212
v 0.894907 0.141944 -0.894907
v 0.681948 0.927962 -0.681947
v 1.096032 0.141944 -0.632794
v 0.835212 0.927962 -0.482210
v 0.931558 0.927962 -0.249610
v -0.000000 2.500000 0.390000
v 0.000000 1.713981 0.691170
v -0.000000 0.000000 -1.300000
v -0.000000 0.100000 -1.300000
v 0.000000 0.148458 1.291012
v 0.000000 0.100000 1.300000
v 0.000000 0.927962 0.992339
v 0.390000 2.500000 0.000000
v 0.376711 2.500000 0.100940
v 0.100939 2.500000 0.376711
v 1.125833 -0.000000 0.650000
v 0.919239 -0.000000 0.919239
v 0.650000 -0.000000 1.125833
v 0.336465 -0.000000 1.255704
v 0.336465 0.000000 -1.255704
v 0.650000 0.000000 -1.125833
v 0.919239 0.000000 -0.919239
v 1.125833 0.000000 -0.650000
v -0.000000 1.713981 -0.691169
v -0.000000 2.500000 -0.390000
v 0.337750 2.500000 0.195000
v 0.275772 2.500000 0.275772
v 0.195000 2.500000 0.337750
v 0.100939 2.500000 -0.376711
v 0.195000 2.500000 -0.337749
v 0.275772 2.500000 -0.275771
v 0.337750 2.500000 -0.195000
v 0.000000 -0.000000 1.300000
v 1.255704 0.000000 -0.336465
v 0.376711 2.500000 -0.100939
v 1.300000 -0.000000 0.000000
v 1.255704 -0.000000 0.336465
v -0.000000 0.148459 -1.291012
v -0.000000 0.927962 -0.992338
vt 0.562863 0.990000
vt 0.557987 0.990000
vt 0.557987 0.829660
vt 0.562863 0.827864
vt 0.562865 0.990000
vt 0.557984 0.990000
vt 0.557984 0.971069
vt 0.562865 0.970644
vt 0.562864 0.990000
vt 0.557985 0.989589
vt 0.557985 0.980912
vt 0.562864 0.980473
vt 0.562865 0.990000
vt 0.557984 0.989575
vt 0.557984 0.970644
vt 0.562865 0.970644
vt 0.562864 0.990000
vt 0.557985 0.989561
vt 0.557985 0.980883
vt 0.562864 0.980473
vt 0.557987 0.827864
vt 0.562863 0.827412
vt 0.562863 0.988204
vt 0.557987 0.990000
vt 0.557987 0.827412
vt 0.562863 0.829208
vt 0.562863 0.990000
vt 0.557987 0.989548
vt 0.557987 0.667525
vt 0.562863 0.665728
vt 0.557987 0.826068
vt 0.562863 0.827864
vt 0.562863 0.990000
vt 0.557987 0.988204
vt 0.557987 0.665728
vt 0.562863 0.665728
vt 0.562844 0.990000
vt 0.558005 0.989403
vt 0.558005 0.971649
vt 0.562844 0.971052
vt 0.562844 0.990000
vt 0.558005 0.989403
vt 0.558005 0.971649
vt 0.562844 0.971052
vt 0.562844 0.990000
vt 0.558005 0.989403
vt 0.558005 0.971649
vt 0.562844 0.971052
vt 0.562844 0.990000
vt 0.558005 0.989403
vt 0.558005 0.971649
vt 0.562844 0.971052
vt 0.562844 0.990000
vt 0.558005 0.989403
vt 0.558005 0.971649
vt 0.562844 0.971052
vt 0.562844 0.990000
vt 0.558005 0.989403
vt 0.558005 0.971649
vt 0.562844 0.971052
vt 0.562844 0.990000
vt 0.558005 0.989403
vt 0.558005 0.971649
vt 0.562844 0.971052
vt 0.562844 0.990000
vt 0.558005 0.989403
vt 0.558005 0.971649
vt 0.562844 0.971052
vt 0.562844 0.990000
vt 0.558005 0.989403
vt 0.558005 0.971649
vt 0.562844 0.971052
vt 0.562844 0.990000
vt 0.558005 0.989403
vt 0.558005 0.971649
vt 0.562844 0.971052
vt 0.562844 0.990000
vt 0.558005 0.989403
vt 0.558005 0.971649
vt 0.562844 0.971052
vt 0.558005 0.971052
vt 0.562844 0.971649
vt 0.562844 0.989403
vt 0.558005 0.990000
vt 0.562844 0.990000
vt 0.558005 0.989363
vt 0.558005 0.927477
vt 0.562844 0.926839
vt 0.562844 0.990000
vt 0.558005 0.989363
vt 0.558005 0.927477
vt 0.562844 0.926839
vt 0.562844 0.990000
vt 0.558005 0.989363
vt 0.558005 0.927477
vt 0.562844 0.926839
vt 0.562844 0.990000
vt 0.558005 0.989363
vt 0.558005 0.927477
vt 0.562844 0.926839
vt 0.562844 0.990000
vt 0.558005 0.989363
vt 0.558005 0.927477
vt 0.562844 0.926839
vt 0.562844 0.990000
vt 0.558005 0.989363
vt 0.558005 0.927477
vt 0.562844 0.926839
vt 0.562844 0.990000
vt 0.558005 0.989363
vt 0.558005 0.927477
vt 0.562844 0.926839
vt 0.562844 0.990000
vt 0.558005 0.989363
vt 0.558005 0.927477
vt 0.562844 0.926839
vt 0.562844 0.990000
vt 0.558005 0.989363
vt 0.558005 0.927477
vt 0.562844 0.926839
vt 0.562844 0.990000
vt 0.558005 0.989363
vt 0.558005 0.927477
vt 0.562844 0.926839
vt 0.562844 0.990000
vt 0.558005 0.989363
vt 0.558005 0.927477
vt 0.562844 0.926839
vt 0.562844 0.990000
vt 0.558005 0.989363
vt 0.558005 0.927477
vt 0.562844 0.926839
vt 0.881477 0.554190
vt 0.797816 0.415812
vt 0.827418 0.399843
vt 0.897916 0.544809
vt 0.897916 0.544809
vt 0.827418 0.399843
vt 0.915521 0.537283
vt 0.858316 0.386572
vt 0.933620 0.531388
vt 0.890274 0.376129
vt 0.952168 0.527120
vt 0.923024 0.368595
vt 0.971031 0.524718
vt 0.956324 0.364038
vt 0.989861 0.523633
vt 0.989752 0.362504
vt 0.971031 0.524718
vt 0.956324 0.364038
vt 0.989752 0.362504
vt 0.989861 0.523633
vt 0.952168 0.527120
vt 0.923024 0.368595
vt 0.933620 0.531388
vt 0.890274 0.376129
vt 0.915521 0.537283
vt 0.858316 0.386572
vt 0.616715 0.111989
vt 0.627422 0.131117
vt 0.683282 0.101158
vt 0.673614 0.082113
vt 0.741382 0.076254
vt 0.733710 0.056872
vt 0.801457 0.056592
vt 0.795698 0.036545
vt 0.863053 0.042190
vt 0.859282 0.022258
vt 0.925724 0.033315
vt 0.923452 0.013470
vt 0.989694 0.029644
vt 0.989485 0.010196
vt 0.989485 0.010196
vt 0.989694 0.029644
vt 0.925724 0.033315
vt 0.923452 0.013470
vt 0.863053 0.042190
vt 0.859282 0.022258
vt 0.801457 0.056592
vt 0.795698 0.036545
vt 0.741382 0.076254
vt 0.733710 0.056872
vt 0.683282 0.101158
vt 0.673614 0.082113
vt 0.687361 0.109730
vt 0.632331 0.139320
vt 0.687361 0.109730
vt 0.714607 0.276785
vt 0.756987 0.253921
vt 0.744718 0.085147
vt 0.801250 0.234970
vt 0.804008 0.065728
vt 0.847027 0.220019
vt 0.864807 0.051537
vt 0.893968 0.209226
vt 0.926677 0.042759
vt 0.941722 0.202657
vt 0.989650 0.039336
vt 0.989752 0.200396
vt 0.989650 0.039336
vt 0.926677 0.042759
vt 0.989752 0.200396
vt 0.941722 0.202657
vt 0.864807 0.051537
vt 0.893968 0.209226
vt 0.804008 0.065728
vt 0.847027 0.220019
vt 0.744718 0.085147
vt 0.801250 0.234970
vt 0.756987 0.253921
vt 0.586558 0.989700
vt 0.586558 0.830452
vt 0.611679 0.830452
vt 0.611679 0.989700
vt 0.636235 0.830452
vt 0.636235 0.989700
vt 0.586558 0.989700
vt 0.586558 0.830452
vt 0.611679 0.830452
vt 0.611679 0.989700
vt 0.636235 0.830452
vt 0.636235 0.989700
vt 0.586558 0.989700
vt 0.586558 0.830452
vt 0.611679 0.830452
vt 0.611679 0.989700
vt 0.636235 0.830452
vt 0.636235 0.989700
vt 0.586558 0.989700
vt 0.586558 0.830452
vt 0.611679 0.830452
vt 0.611679 0.989700
vt 0.636235 0.830452
vt 0.636235 0.989700
vt 0.586558 0.989700
vt 0.586558 0.830452
vt 0.611679 0.830452
vt 0.611679 0.989700
vt 0.636235 0.830452
vt 0.636235 0.989700
vt 0.586558 0.989700
vt 0.586558 0.830452
vt 0.611679 0.830452
vt 0.611679 0.989700
vt 0.636235 0.830452
vt 0.636235 0.989700
vt 0.854912 0.800326
vt 0.854912 0.819704
vt 0.796395 0.819704
vt 0.796395 0.800326
vt 0.796395 0.800326
vt 0.796395 0.819704
vt 0.737945 0.819704
vt 0.737945 0.800326
vt 0.854912 0.800326
vt 0.854912 0.819704
vt 0.796395 0.800326
vt 0.796395 0.819704
vt 0.737945 0.819704
vt 0.737945 0.800326
vt 0.854912 0.800326
vt 0.854912 0.819704
vt 0.796395 0.800326
vt 0.796395 0.819704
vt 0.737945 0.819704
vt 0.737945 0.800326
vt 0.854912 0.800326
vt 0.854912 0.819704
vt 0.796395 0.800326
vt 0.796395 0.819704
vt 0.737945 0.819704
vt 0.737945 0.800326
vt 0.854912 0.800326
vt 0.854912 0.819704
vt 0.796395 0.800326
vt 0.796395 0.819704
vt 0.737945 0.819704
vt 0.737945 0.800326
vt 0.854912 0.800326
vt 0.854912 0.819704
vt 0.737945 0.819704
vt 0.737945 0.800326
vt 0.796395 0.828372
vt 0.737945 0.828372
vt 0.796395 0.989700
vt 0.737945 0.989700
vt 0.854912 0.828372
vt 0.796395 0.828372
vt 0.854912 0.828372
vt 0.854912 0.989700
vt 0.737945 0.828372
vt 0.796395 0.828372
vt 0.796395 0.989700
vt 0.737945 0.989700
vt 0.854912 0.828372
vt 0.854912 0.989700
vt 0.737945 0.828372
vt 0.796395 0.828372
vt 0.796395 0.989700
vt 0.737945 0.989700
vt 0.854912 0.828372
vt 0.854912 0.989700
vt 0.737945 0.828372
vt 0.796395 0.828372
vt 0.796395 0.989700
vt 0.737945 0.989700
vt 0.854912 0.828372
vt 0.854912 0.989700
vt 0.737945 0.828372
vt 0.796395 0.828372
vt 0.796395 0.989700
vt 0.737945 0.989700
vt 0.854912 0.828372
vt 0.854912 0.989700
vt 0.737945 0.828372
vt 0.796395 0.989700
vt 0.737945 0.989700
vt 0.687938 0.828679
vt 0.727077 0.828679
vt 0.727077 0.989700
vt 0.687938 0.989700
vt 0.854912 0.989700
vt 0.687938 0.989700
vt 0.647999 0.989700
vt 0.647999 0.828679
vt 0.687938 0.828679
vt 0.727077 0.989700
vt 0.727077 0.828679
vt 0.687938 0.989700
vt 0.647999 0.989700
vt 0.647999 0.828679
vt 0.687938 0.828679
vt 0.727077 0.989700
vt 0.727077 0.828679
vt 0.687938 0.989700
vt 0.647999 0.989700
vt 0.647999 0.828679
vt 0.687938 0.828679
vt 0.727077 0.989700
vt 0.727077 0.828679
vt 0.687938 0.989700
vt 0.647999 0.989700
vt 0.647999 0.828679
vt 0.687938 0.828679
vt 0.727077 0.989700
vt 0.727077 0.828679
vt 0.687938 0.989700
vt 0.647999 0.989700
vt 0.647999 0.828679
vt 0.687938 0.828679
vt 0.727077 0.989700
vt 0.727077 0.828679
vt 0.647999 0.989700
vt 0.647999 0.828679
vn -1.0000 -0.0000 0.0000
vn -0.3339 0.9426 -0.0000
vn -0.3225 0.9426 -0.0864
vn -0.2892 0.9426 -0.1670
vn -0.2361 0.9426 -0.2361
vn -0.1670 0.9426 -0.2892
vn -0.0864 0.9426 -0.3225
vn -0.0439 0.9417 -0.3336
vn -0.0439 0.9417 0.3336
vn -0.0864 0.9426 0.3225
vn -0.1670 0.9426 0.2892
vn -0.2361 0.9426 0.2361
vn -0.2892 0.9426 0.1670
vn -0.3225 0.9426 0.0864
vn 0.0000 -1.0000 -0.0000
vn 0.9338 0.3578 0.0000
vn 0.9020 0.3578 -0.2417
vn 0.9020 0.3578 0.2417
vn 0.8087 0.3578 0.4669
vn 0.6603 0.3578 0.6603
vn 0.4669 0.3578 0.8087
vn 0.2417 0.3578 0.9020
vn -0.0000 0.3578 0.9338
vn 0.2417 0.3578 -0.9020
vn -0.0000 0.3578 -0.9338
vn 0.4669 0.3578 -0.8087
vn 0.6603 0.3578 -0.6603
vn 0.8087 0.3578 -0.4669
vn 1.0000 -0.0000 0.0000
vn 0.9959 0.0909 0.0000
vn 0.9619 0.0909 0.2577
vn 0.9659 0.0000 0.2588
vn 0.8624 0.0909 0.4979
vn 0.8660 0.0000 0.5000
vn 0.7042 0.0909 0.7042
vn 0.7071 0.0000 0.7071
vn 0.4979 0.0909 0.8624
vn 0.5000 0.0000 0.8660
vn 0.2577 0.0909 0.9619
vn 0.2588 0.0000 0.9659
vn 0.0000 0.0910 0.9958
vn -0.0000 0.0000 1.0000
vn -0.0000 0.0000 -1.0000
vn 0.0000 0.0910 -0.9958
vn 0.2577 0.0912 -0.9619
vn 0.2588 0.0000 -0.9659
vn 0.4979 0.0912 -0.8624
vn 0.5000 0.0000 -0.8660
vn 0.7042 0.0909 -0.7042
vn 0.7071 0.0000 -0.7071
vn 0.8624 0.0914 -0.4979
vn 0.8660 0.0000 -0.5000
vn 0.9619 0.0915 -0.2577
vn 0.9659 -0.0000 -0.2588
vn 0.9298 0.2710 -0.2491
vn 0.9626 0.2709 -0.0000
vn 0.9298 0.2710 0.2491
vn 0.9626 0.2710 0.0000
vn 0.8336 0.2709 0.4813
vn 0.6807 0.2709 0.6807
vn 0.6806 0.2710 0.6806
vn 0.4813 0.2710 0.8336
vn 0.2491 0.2709 0.9298
vn 0.2491 0.2710 0.9298
vn -0.0000 0.2710 0.9626
vn -0.0000 0.2710 -0.9626
vn 0.2491 0.2709 -0.9298
vn 0.2491 0.2710 -0.9298
vn 0.4813 0.2709 -0.8336
vn 0.4813 0.2710 -0.8336
vn 0.6806 0.2710 -0.6806
vn 0.8336 0.2710 -0.4813
vn -0.9338 -0.3578 -0.0000
vn -0.9020 -0.3578 -0.2417
vn -0.8087 -0.3578 -0.4669
vn -0.6603 -0.3578 -0.6603
vn -0.4669 -0.3578 -0.8087
vn -0.2417 -0.3578 -0.9020
vn -0.1220 -0.3551 -0.9268
vn -0.1220 -0.3551 0.9268
vn -0.2417 -0.3578 0.9020
vn -0.4669 -0.3578 0.8087
vn -0.6603 -0.3578 0.6603
vn -0.8087 -0.3578 0.4669
vn -0.9020 -0.3578 0.2417
vn -0.9958 -0.0914 -0.0000
vn -0.9619 -0.0915 0.2577
vn -0.9659 0.0000 0.2588
vn -0.9659 -0.0000 -0.2588
vn -0.9619 -0.0912 -0.2577
vn -0.8660 0.0000 -0.5000
vn -0.8624 -0.0909 -0.4979
vn -0.7071 0.0000 -0.7071
vn -0.7041 -0.0919 -0.7041
vn -0.5000 0.0000 -0.8660
vn -0.4979 -0.0916 -0.8624
vn -0.2588 0.0000 -0.9659
vn -0.2577 -0.0916 -0.9619
vn -0.1305 0.0000 -0.9914
vn -0.1300 -0.0901 -0.9874
vn -0.2588 0.0000 0.9659
vn -0.2577 -0.0914 0.9619
vn -0.1300 -0.0901 0.9874
vn -0.1305 0.0000 0.9914
vn -0.5000 0.0000 0.8660
vn -0.4979 -0.0909 0.8624
vn -0.7071 0.0000 0.7071
vn -0.7041 -0.0919 0.7041
vn -0.8660 0.0000 0.5000
vn -0.8624 -0.0916 0.4979
vn -0.9298 -0.2711 -0.2491
vn -0.9625 -0.2713 -0.0000
vn -0.9297 -0.2712 0.2491
vn -0.8336 -0.2712 -0.4813
vn -0.6806 -0.2712 -0.6806
vn -0.4812 -0.2714 -0.8335
vn -0.2491 -0.2710 -0.9298
vn -0.1257 -0.2691 -0.9549
vn -0.1257 -0.2691 0.9549
vn -0.2491 -0.2711 0.9298
vn -0.4813 -0.2712 0.8336
vn -0.6806 -0.2713 0.6806
vn -0.8336 -0.2711 0.4813
usemtl base_auv.003
s 1
f 157/1/1 2/2/1 3/3/1 158/4/1
f 159/5/1 6/6/1 7/7/1 160/8/1
f 161/9/1 10/10/1 11/11/1 162/12/1
f 162/13/1 11/14/1 13/15/1 184/16/1
f 160/17/1 7/18/1 15/19/1 189/20/1
f 10/21/1 161/22/1 163/23/1 18/24/1
f 19/25/1 190/26/1 189/27/1 15/28/1
f 18/29/1 163/30/1 158/4/1 3/3/1
f 21/31/1 175/32/1 190/33/1 19/34/1
f 175/32/1 21/31/1 23/35/1 176/36/1
f 164/37/2 26/38/2 27/39/3 165/40/3
f 165/41/3 27/42/3 29/43/4 177/44/4
f 177/45/4 29/46/4 31/47/5 178/48/5
f 178/49/5 31/50/5 33/51/6 179/52/6
f 179/53/6 33/54/6 35/55/7 166/56/7
f 166/57/7 35/58/7 2/59/8 157/60/8
f 176/61/9 23/62/9 37/63/10 180/64/10
f 180/65/10 37/66/10 39/67/11 181/68/11
f 181/69/11 39/70/11 41/71/12 182/72/12
f 182/73/12 41/74/12 43/75/13 183/76/13
f 183/77/13 43/78/13 45/79/14 186/80/14
f 186/81/14 45/82/14 26/83/2 164/84/2
f 187/85/15 48/86/15 49/87/15 185/88/15
f 188/89/15 52/90/15 48/91/15 187/92/15
f 167/93/15 54/94/15 52/95/15 188/96/15
f 168/97/15 56/98/15 54/99/15 167/100/15
f 169/101/15 58/102/15 56/103/15 168/104/15
f 170/105/15 60/106/15 58/107/15 169/108/15
f 184/109/15 13/110/15 60/111/15 170/112/15
f 171/113/15 62/114/15 6/115/15 159/116/15
f 172/117/15 64/118/15 62/119/15 171/120/15
f 173/121/15 66/122/15 64/123/15 172/124/15
f 174/125/15 68/126/15 66/127/15 173/128/15
f 185/129/15 49/130/15 68/131/15 174/132/15
f 25/133/16 69/134/16 70/135/17 46/136/17
f 28/137/18 71/138/18 69/134/16 25/133/16
f 30/139/19 72/140/19 71/138/18 28/137/18
f 32/141/20 73/142/20 72/140/19 30/139/19
f 34/143/21 74/144/21 73/142/20 32/141/20
f 36/145/22 75/146/22 74/144/21 34/143/21
f 1/147/23 4/148/23 75/146/22 36/145/22
f 38/149/24 76/150/24 22/151/25 24/152/25
f 40/153/26 77/154/26 76/150/24 38/149/24
f 42/155/27 78/156/27 77/154/26 40/153/26
f 44/157/28 79/158/28 78/156/27 42/155/27
f 46/136/17 70/135/17 79/158/28 44/157/28
f 47/159/29 80/160/30 81/161/31 51/162/32
f 51/162/32 81/161/31 82/163/33 53/164/34
f 53/164/34 82/163/33 83/165/35 55/166/36
f 55/166/36 83/165/35 84/167/37 57/168/38
f 57/168/38 84/167/37 85/169/39 59/170/40
f 59/170/40 85/169/39 12/171/41 14/172/42
f 5/173/43 8/174/44 86/175/45 61/176/46
f 61/176/46 86/175/45 87/177/47 63/178/48
f 63/178/48 87/177/47 88/179/49 65/180/50
f 65/180/50 88/179/49 89/181/51 67/182/52
f 67/182/52 89/181/51 90/183/53 50/184/54
f 50/184/54 90/183/53 80/160/30 47/159/29
f 80/160/30 90/183/53 91/185/55 92/186/56
f 92/186/56 93/187/57 81/161/31 80/160/30
f 92/186/56 94/188/58 95/189/57 93/187/57
f 93/187/57 96/190/59 82/163/33 81/161/31
f 93/187/57 95/189/57 97/191/59 96/190/59
f 96/190/59 98/192/60 83/165/35 82/163/33
f 96/190/59 97/191/59 99/193/61 98/192/60
f 98/192/60 100/194/62 84/167/37 83/165/35
f 98/192/60 99/193/61 101/195/62 100/194/62
f 100/194/62 102/196/63 85/169/39 84/167/37
f 100/194/62 101/195/62 103/197/64 102/196/63
f 102/196/63 9/198/65 12/171/41 85/169/39
f 102/196/63 103/197/64 17/199/65 9/198/65
f 16/200/66 104/201/67 86/175/45 8/174/44
f 16/200/66 20/202/66 105/203/68 104/201/67
f 104/201/67 106/204/69 87/177/47 86/175/45
f 104/201/67 105/203/68 107/205/70 106/204/69
f 106/204/69 108/206/71 88/179/49 87/177/47
f 106/204/69 107/205/70 109/207/71 108/206/71
f 108/206/71 110/208/72 89/181/51 88/179/49
f 108/206/71 109/207/71 111/209/72 110/208/72
f 110/208/72 111/209/72 112/210/55 91/185/55
f 91/185/55 112/210/55 94/188/58 92/186/56
f 90/183/53 89/181/51 110/208/72 91/185/55
f 26/211/73 113/212/73 114/213/74 27/214/74
f 27/214/74 114/213/74 115/215/75 29/216/75
f 29/217/75 115/218/75 116/219/76 31/220/76
f 31/220/76 116/219/76 117/221/77 33/222/77
f 33/223/77 117/224/77 118/225/78 35/226/78
f 35/226/78 118/225/78 3/227/79 2/228/79
f 23/229/80 21/230/80 119/231/81 37/232/81
f 37/232/81 119/231/81 120/233/82 39/234/82
f 39/235/82 120/236/82 121/237/83 41/238/83
f 41/238/83 121/237/83 122/239/84 43/240/84
f 43/241/84 122/242/84 123/243/85 45/244/85
f 45/244/85 123/243/85 113/245/73 26/246/73
f 48/247/1 124/248/86 125/249/87 49/250/88
f 52/251/89 126/252/90 124/253/86 48/254/1
f 54/255/91 127/256/92 126/252/90 52/251/89
f 56/257/93 128/258/94 127/259/92 54/260/91
f 58/261/95 129/262/96 128/258/94 56/257/93
f 60/263/97 130/264/98 129/265/96 58/266/95
f 13/267/99 11/268/100 130/264/98 60/263/97
f 62/269/101 131/270/102 7/271/103 6/272/104
f 64/273/105 132/274/106 131/270/102 62/269/101
f 66/275/107 133/276/108 132/277/106 64/278/105
f 68/279/109 134/280/110 133/276/108 66/275/107
f 49/250/88 125/249/87 134/281/110 68/282/109
f 124/253/86 126/252/90 135/283/111 136/284/112
f 136/284/112 135/283/111 137/285/74 138/286/73
f 136/287/112 139/288/113 125/249/87 124/248/86
f 135/283/111 140/289/114 141/290/75 137/285/74
f 126/252/90 127/256/92 140/289/114 135/283/111
f 140/291/114 142/292/115 143/293/76 141/294/75
f 127/259/92 128/258/94 142/292/115 140/291/114
f 142/292/115 144/295/116 145/296/77 143/293/76
f 128/258/94 129/262/96 144/295/116 142/292/115
f 144/297/116 146/298/117 147/299/78 145/300/77
f 129/265/96 130/264/98 146/298/117 144/297/116
f 146/298/117 10/301/118 18/302/79 147/299/78
f 130/264/98 11/268/100 10/301/118 146/298/117
f 15/303/119 148/304/120 149/305/81 19/306/80
f 7/271/103 131/270/102 148/304/120 15/303/119
f 148/304/120 150/307/121 151/308/82 149/305/81
f 131/270/102 132/274/106 150/307/121 148/304/120
f 150/309/121 152/310/122 153/311/83 151/312/82
f 132/277/106 133/276/108 152/310/122 150/309/121
f 152/310/122 154/313/123 155/314/84 153/311/83
f 133/276/108 134/280/110 154/313/123 152/310/122
f 154/315/123 139/288/113 156/316/85 155/317/84
f 139/288/113 154/315/123 134/281/110 125/249/87
f 156/318/85 138/319/73 113/320/73 123/321/85
f 138/322/73 156/316/85 139/288/113 136/287/112
f 112/210/55 70/135/17 69/134/16 94/188/58
f 111/209/72 79/158/28 70/135/17 112/210/55
f 109/207/71 78/156/27 79/158/28 111/209/72
f 107/205/70 77/154/26 78/156/27 109/207/71
f 105/203/68 76/150/24 77/154/26 107/205/70
f 20/202/66 22/151/25 76/150/24 105/203/68
f 103/197/64 75/146/22 4/148/23 17/199/65
f 101/195/62 74/144/21 75/146/22 103/197/64
f 99/193/61 73/142/20 74/144/21 101/195/62
f 97/191/59 72/140/19 73/142/20 99/193/61
f 95/189/57 71/138/18 72/140/19 97/191/59
f 94/188/58 69/134/16 71/138/18 95/189/57
f 114/323/74 113/324/73 138/325/73 137/326/74
f 115/327/75 114/323/74 137/326/74 141/328/75
f 116/329/76 115/330/75 141/331/75 143/332/76
f 117/333/77 116/329/76 143/332/76 145/334/77
f 118/335/78 117/336/77 145/337/77 147/338/78
f 3/339/79 118/335/78 147/338/78 18/340/79
f 119/341/81 21/342/80 19/343/80 149/344/81
f 120/345/82 119/341/81 149/344/81 151/346/82
f 121/347/83 120/348/82 151/349/82 153/350/83
f 122/351/84 121/347/83 153/350/83 155/352/84
f 123/321/85 122/353/84 155/354/84 156/318/85
